<svg xmlns="http://www.w3.org/2000/svg" xmlns:xlink="http://www.w3.org/1999/xlink" width="1080" zoomAndPan="magnify" viewBox="0 0 810 809.999993" height="1080" preserveAspectRatio="xMidYMid meet" version="1.0"><defs><clipPath id="5b41c2985a"><path d="M 165.003906 320.710938 L 302.375 320.710938 L 302.375 458.082031 L 165.003906 458.082031 Z M 165.003906 320.710938 " clip-rule="nonzero"/></clipPath><clipPath id="6dd0be02e6"><path d="M 233.6875 320.710938 C 195.753906 320.710938 165.003906 351.464844 165.003906 389.398438 C 165.003906 427.332031 195.753906 458.082031 233.6875 458.082031 C 271.621094 458.082031 302.375 427.332031 302.375 389.398438 C 302.375 351.464844 271.621094 320.710938 233.6875 320.710938 " clip-rule="nonzero"/></clipPath><clipPath id="1c12fe1b4c"><path d="M 47.273438 366.90625 L 189.355469 366.90625 L 189.355469 508.984375 L 47.273438 508.984375 Z M 47.273438 366.90625 " clip-rule="nonzero"/></clipPath><clipPath id="76ddca9754"><path d="M 118.3125 366.90625 C 79.078125 366.90625 47.273438 398.710938 47.273438 437.945312 C 47.273438 477.179688 79.078125 508.984375 118.3125 508.984375 C 157.546875 508.984375 189.355469 477.179688 189.355469 437.945312 C 189.355469 398.710938 157.546875 366.90625 118.3125 366.90625 " clip-rule="nonzero"/></clipPath><clipPath id="b74f01fee2"><path d="M 47.273438 366.90625 L 189.023438 366.90625 L 189.023438 508.65625 L 47.273438 508.65625 Z M 47.273438 366.90625 " clip-rule="nonzero"/></clipPath><clipPath id="e9c406df9d"><path d="M 118.148438 366.90625 C 79.007812 366.90625 47.273438 398.636719 47.273438 437.78125 C 47.273438 476.921875 79.007812 508.65625 118.148438 508.65625 C 157.292969 508.65625 189.023438 476.921875 189.023438 437.78125 C 189.023438 398.636719 157.292969 366.90625 118.148438 366.90625 " clip-rule="nonzero"/></clipPath><clipPath id="2dd21a0f91"><path d="M 98.234375 409.625 L 146.15625 409.625 L 146.15625 457.546875 L 98.234375 457.546875 Z M 98.234375 409.625 " clip-rule="nonzero"/></clipPath><clipPath id="fdab4524c7"><path d="M 122.195312 409.625 C 108.964844 409.625 98.234375 420.351562 98.234375 433.585938 C 98.234375 446.816406 108.964844 457.546875 122.195312 457.546875 C 135.429688 457.546875 146.15625 446.816406 146.15625 433.585938 C 146.15625 420.351562 135.429688 409.625 122.195312 409.625 " clip-rule="nonzero"/></clipPath><clipPath id="64dd6d15f3"><path d="M 98.234375 409.625 L 146.234375 409.625 L 146.234375 457.625 L 98.234375 457.625 Z M 98.234375 409.625 " clip-rule="nonzero"/></clipPath><clipPath id="b6734a891e"><path d="M 122.234375 409.625 C 108.980469 409.625 98.234375 420.371094 98.234375 433.625 C 98.234375 446.878906 108.980469 457.625 122.234375 457.625 C 135.492188 457.625 146.234375 446.878906 146.234375 433.625 C 146.234375 420.371094 135.492188 409.625 122.234375 409.625 " clip-rule="nonzero"/></clipPath><clipPath id="45e5b3e48d"><path d="M 55.867188 363.398438 L 193.234375 363.398438 L 193.234375 500.769531 L 55.867188 500.769531 Z M 55.867188 363.398438 " clip-rule="nonzero"/></clipPath><clipPath id="09a08b0982"><path d="M 124.550781 363.398438 C 86.617188 363.398438 55.867188 394.152344 55.867188 432.085938 C 55.867188 470.019531 86.617188 500.769531 124.550781 500.769531 C 162.484375 500.769531 193.234375 470.019531 193.234375 432.085938 C 193.234375 394.152344 162.484375 363.398438 124.550781 363.398438 " clip-rule="nonzero"/></clipPath><clipPath id="8910286dcf"><path d="M 55.867188 363.398438 L 193.117188 363.398438 L 193.117188 500.648438 L 55.867188 500.648438 Z M 55.867188 363.398438 " clip-rule="nonzero"/></clipPath><clipPath id="2eb9ebe1ac"><path d="M 124.492188 363.398438 C 86.589844 363.398438 55.867188 394.125 55.867188 432.023438 C 55.867188 469.925781 86.589844 500.648438 124.492188 500.648438 C 162.390625 500.648438 193.117188 469.925781 193.117188 432.023438 C 193.117188 394.125 162.390625 363.398438 124.492188 363.398438 " clip-rule="nonzero"/></clipPath><clipPath id="ae5dd73bf1"><path d="M 100.589844 408.125 L 148.511719 408.125 L 148.511719 456.046875 L 100.589844 456.046875 Z M 100.589844 408.125 " clip-rule="nonzero"/></clipPath><clipPath id="eaa94d676f"><path d="M 124.550781 408.125 C 111.316406 408.125 100.589844 418.851562 100.589844 432.085938 C 100.589844 445.316406 111.316406 456.046875 124.550781 456.046875 C 137.785156 456.046875 148.511719 445.316406 148.511719 432.085938 C 148.511719 418.851562 137.785156 408.125 124.550781 408.125 " clip-rule="nonzero"/></clipPath><clipPath id="1def7014dc"><path d="M 100.589844 408.125 L 148.589844 408.125 L 148.589844 456.125 L 100.589844 456.125 Z M 100.589844 408.125 " clip-rule="nonzero"/></clipPath><clipPath id="1e55ab8d23"><path d="M 124.589844 408.125 C 111.335938 408.125 100.589844 418.871094 100.589844 432.125 C 100.589844 445.378906 111.335938 456.125 124.589844 456.125 C 137.84375 456.125 148.589844 445.378906 148.589844 432.125 C 148.589844 418.871094 137.84375 408.125 124.589844 408.125 " clip-rule="nonzero"/></clipPath><clipPath id="ca4646cef8"><path d="M 306.4375 320.710938 L 443.804688 320.710938 L 443.804688 458.082031 L 306.4375 458.082031 Z M 306.4375 320.710938 " clip-rule="nonzero"/></clipPath><clipPath id="913d7027ca"><path d="M 375.121094 320.710938 C 337.1875 320.710938 306.4375 351.464844 306.4375 389.398438 C 306.4375 427.332031 337.1875 458.082031 375.121094 458.082031 C 413.054688 458.082031 443.804688 427.332031 443.804688 389.398438 C 443.804688 351.464844 413.054688 320.710938 375.121094 320.710938 " clip-rule="nonzero"/></clipPath><clipPath id="71038eacc3"><path d="M 314.5625 308.605469 L 451.929688 308.605469 L 451.929688 445.972656 L 314.5625 445.972656 Z M 314.5625 308.605469 " clip-rule="nonzero"/></clipPath><clipPath id="c453c84c94"><path d="M 383.246094 308.605469 C 345.3125 308.605469 314.5625 339.355469 314.5625 377.289062 C 314.5625 415.222656 345.3125 445.972656 383.246094 445.972656 C 421.179688 445.972656 451.929688 415.222656 451.929688 377.289062 C 451.929688 339.355469 421.179688 308.605469 383.246094 308.605469 " clip-rule="nonzero"/></clipPath><clipPath id="00e0c51cc9"><path d="M 359.285156 353.328125 L 407.207031 353.328125 L 407.207031 401.25 L 359.285156 401.25 Z M 359.285156 353.328125 " clip-rule="nonzero"/></clipPath><clipPath id="0cea3cc9fb"><path d="M 383.246094 353.328125 C 370.011719 353.328125 359.285156 364.054688 359.285156 377.289062 C 359.285156 390.523438 370.011719 401.25 383.246094 401.25 C 396.480469 401.25 407.207031 390.523438 407.207031 377.289062 C 407.207031 364.054688 396.480469 353.328125 383.246094 353.328125 " clip-rule="nonzero"/></clipPath><clipPath id="8ef1f77d6e"><path d="M 359.285156 353.328125 L 407.195312 353.328125 L 407.195312 401.238281 L 359.285156 401.238281 Z M 359.285156 353.328125 " clip-rule="nonzero"/></clipPath><clipPath id="446a05312e"><path d="M 383.242188 353.328125 C 370.011719 353.328125 359.285156 364.054688 359.285156 377.285156 C 359.285156 390.515625 370.011719 401.238281 383.242188 401.238281 C 396.472656 401.238281 407.195312 390.515625 407.195312 377.285156 C 407.195312 364.054688 396.472656 353.328125 383.242188 353.328125 " clip-rule="nonzero"/></clipPath><clipPath id="47ccca9536"><path d="M 231.71875 314.65625 L 369.085938 314.65625 L 369.085938 452.027344 L 231.71875 452.027344 Z M 231.71875 314.65625 " clip-rule="nonzero"/></clipPath><clipPath id="7384e9ae46"><path d="M 300.402344 314.65625 C 262.46875 314.65625 231.71875 345.410156 231.71875 383.34375 C 231.71875 421.277344 262.46875 452.027344 300.402344 452.027344 C 338.335938 452.027344 369.085938 421.277344 369.085938 383.34375 C 369.085938 345.410156 338.335938 314.65625 300.402344 314.65625 " clip-rule="nonzero"/></clipPath><clipPath id="78d971af50"><path d="M 173.128906 308.605469 L 310.5 308.605469 L 310.5 445.972656 L 173.128906 445.972656 Z M 173.128906 308.605469 " clip-rule="nonzero"/></clipPath><clipPath id="63d088869d"><path d="M 241.8125 308.605469 C 203.878906 308.605469 173.128906 339.355469 173.128906 377.289062 C 173.128906 415.222656 203.878906 445.972656 241.8125 445.972656 C 279.746094 445.972656 310.5 415.222656 310.5 377.289062 C 310.5 339.355469 279.746094 308.605469 241.8125 308.605469 " clip-rule="nonzero"/></clipPath><clipPath id="e6015ad0cf"><path d="M 173.128906 308.605469 L 310.378906 308.605469 L 310.378906 445.855469 L 173.128906 445.855469 Z M 173.128906 308.605469 " clip-rule="nonzero"/></clipPath><clipPath id="e47be4fe8d"><path d="M 241.753906 308.605469 C 203.851562 308.605469 173.128906 339.328125 173.128906 377.230469 C 173.128906 415.128906 203.851562 445.855469 241.753906 445.855469 C 279.652344 445.855469 310.378906 415.128906 310.378906 377.230469 C 310.378906 339.328125 279.652344 308.605469 241.753906 308.605469 " clip-rule="nonzero"/></clipPath><clipPath id="07ac91bb55"><path d="M 217.855469 353.328125 L 265.773438 353.328125 L 265.773438 401.25 L 217.855469 401.25 Z M 217.855469 353.328125 " clip-rule="nonzero"/></clipPath><clipPath id="dc68b657bb"><path d="M 241.8125 353.328125 C 228.582031 353.328125 217.855469 364.054688 217.855469 377.289062 C 217.855469 390.523438 228.582031 401.25 241.8125 401.25 C 255.046875 401.25 265.773438 390.523438 265.773438 377.289062 C 265.773438 364.054688 255.046875 353.328125 241.8125 353.328125 " clip-rule="nonzero"/></clipPath><clipPath id="7432b39bb1"><path d="M 217.855469 353.328125 L 265.855469 353.328125 L 265.855469 401.328125 L 217.855469 401.328125 Z M 217.855469 353.328125 " clip-rule="nonzero"/></clipPath><clipPath id="e18ab85760"><path d="M 241.855469 353.328125 C 228.597656 353.328125 217.855469 364.074219 217.855469 377.328125 C 217.855469 390.582031 228.597656 401.328125 241.855469 401.328125 C 255.109375 401.328125 265.855469 390.582031 265.855469 377.328125 C 265.855469 364.074219 255.109375 353.328125 241.855469 353.328125 " clip-rule="nonzero"/></clipPath><clipPath id="ef45ff8224"><path d="M 237.75 303.574219 L 375.121094 303.574219 L 375.121094 440.945312 L 237.75 440.945312 Z M 237.75 303.574219 " clip-rule="nonzero"/></clipPath><clipPath id="80c2322c94"><path d="M 306.4375 303.574219 C 268.503906 303.574219 237.75 334.328125 237.75 372.261719 C 237.75 410.195312 268.503906 440.945312 306.4375 440.945312 C 344.371094 440.945312 375.121094 410.195312 375.121094 372.261719 C 375.121094 334.328125 344.371094 303.574219 306.4375 303.574219 " clip-rule="nonzero"/></clipPath><clipPath id="b6226d45e8"><path d="M 237.75 303.574219 L 374.914062 303.574219 L 374.914062 440.738281 L 237.75 440.738281 Z M 237.75 303.574219 " clip-rule="nonzero"/></clipPath><clipPath id="f7d0fa2257"><path d="M 306.332031 303.574219 C 268.457031 303.574219 237.75 334.28125 237.75 372.15625 C 237.75 410.03125 268.457031 440.738281 306.332031 440.738281 C 344.207031 440.738281 374.914062 410.03125 374.914062 372.15625 C 374.914062 334.28125 344.207031 303.574219 306.332031 303.574219 " clip-rule="nonzero"/></clipPath><clipPath id="ceb4845915"><path d="M 282.476562 347.273438 L 330.394531 347.273438 L 330.394531 395.195312 L 282.476562 395.195312 Z M 282.476562 347.273438 " clip-rule="nonzero"/></clipPath><clipPath id="f00b3497c7"><path d="M 306.4375 347.273438 C 293.203125 347.273438 282.476562 358.003906 282.476562 371.234375 C 282.476562 384.46875 293.203125 395.195312 306.4375 395.195312 C 319.667969 395.195312 330.394531 384.46875 330.394531 371.234375 C 330.394531 358.003906 319.667969 347.273438 306.4375 347.273438 " clip-rule="nonzero"/></clipPath><clipPath id="55ef2b6a60"><path d="M 282.476562 347.273438 L 330.207031 347.273438 L 330.207031 395.007812 L 282.476562 395.007812 Z M 282.476562 347.273438 " clip-rule="nonzero"/></clipPath><clipPath id="6684176eab"><path d="M 306.34375 347.273438 C 293.160156 347.273438 282.476562 357.960938 282.476562 371.140625 C 282.476562 384.320312 293.160156 395.007812 306.34375 395.007812 C 319.523438 395.007812 330.207031 384.320312 330.207031 371.140625 C 330.207031 357.960938 319.523438 347.273438 306.34375 347.273438 " clip-rule="nonzero"/></clipPath><clipPath id="8e56a958ad"><path d="M 294.210938 313 L 297.234375 313 L 297.234375 315.902344 L 294.210938 315.902344 Z M 294.210938 313 " clip-rule="nonzero"/></clipPath><clipPath id="be36d5f123"><path d="M 297.226562 313.800781 C 295.949219 315.898438 294.824219 315.523438 294.523438 315.074219 C 294.226562 314.625 294.449219 313.425781 294.824219 313.125 C 295.199219 312.824219 296.851562 313.199219 296.851562 313.199219 " clip-rule="nonzero"/></clipPath><clipPath id="2d192adc5d"><path d="M 282.507812 317.148438 L 285.535156 317.148438 L 285.535156 320 L 282.507812 320 Z M 282.507812 317.148438 " clip-rule="nonzero"/></clipPath><clipPath id="d89ddff3c9"><path d="M 285.523438 318.226562 C 284.25 320.25 283.125 319.875 282.824219 319.425781 C 282.523438 318.976562 282.75 317.773438 283.125 317.476562 C 283.5 317.175781 285.148438 317.625 285.148438 317.625 " clip-rule="nonzero"/></clipPath><clipPath id="33c4d5180f"><path d="M 274.042969 327.207031 L 277.660156 327.207031 L 277.660156 330.46875 L 274.042969 330.46875 Z M 274.042969 327.207031 " clip-rule="nonzero"/></clipPath><clipPath id="806e51a989"><path d="M 275.625 330.375 C 274.050781 328.425781 274.5 327.824219 274.875 327.601562 C 275.25 327.375 275.851562 327.375 276.226562 327.523438 C 276.601562 327.675781 277.050781 328.199219 277.125 328.648438 C 277.199219 329.023438 276.976562 329.699219 276.675781 330 C 276.375 330.300781 275.699219 330.449219 275.324219 330.375 C 274.875 330.300781 274.351562 329.851562 274.199219 329.476562 C 274.050781 329.101562 274.125 328.425781 274.351562 328.050781 C 274.648438 327.675781 275.476562 327.226562 276 327.300781 C 276.523438 327.375 277.5 328.125 277.574219 328.648438 C 277.648438 329.175781 276.449219 330.375 276.449219 330.375 " clip-rule="nonzero"/></clipPath><clipPath id="2f9fcaca2f"><path d="M 259.175781 331.023438 L 262.132812 331.023438 L 262.132812 334 L 259.175781 334 Z M 259.175781 331.023438 " clip-rule="nonzero"/></clipPath><clipPath id="63b0917efc"><path d="M 262.125 332.101562 C 260.851562 334.125 259.648438 333.75 259.425781 333.300781 C 259.199219 332.851562 259.425781 331.648438 259.800781 331.351562 C 260.175781 331.050781 261.75 331.5 261.75 331.5 " clip-rule="nonzero"/></clipPath><clipPath id="aee4f26719"><path d="M 304.261719 328.855469 L 307.96875 328.855469 L 307.96875 332.339844 L 304.261719 332.339844 Z M 304.261719 328.855469 " clip-rule="nonzero"/></clipPath><clipPath id="8fad80418f"><path d="M 307.5 329.699219 C 307.800781 331.425781 307.425781 332.023438 307.050781 332.175781 C 306.675781 332.324219 306 332.25 305.625 332.023438 C 305.25 331.800781 304.949219 331.199219 304.949219 330.824219 C 304.949219 330.375 305.25 329.773438 305.550781 329.550781 C 305.925781 329.324219 306.601562 329.25 306.976562 329.398438 C 307.351562 329.550781 307.800781 330.074219 307.875 330.449219 C 307.949219 330.824219 307.875 331.574219 307.574219 331.800781 C 307.125 332.101562 305.550781 332.101562 305.023438 331.648438 C 304.574219 331.273438 304.273438 330 304.574219 329.550781 C 304.875 329.101562 306.675781 328.875 306.675781 328.875 " clip-rule="nonzero"/></clipPath><clipPath id="bd016d04b7"><path d="M 330.734375 322.246094 L 333.757812 322.246094 L 333.757812 325 L 330.734375 325 Z M 330.734375 322.246094 " clip-rule="nonzero"/></clipPath><clipPath id="8e58e7cf91"><path d="M 333.75 323.324219 C 332.476562 325.351562 331.351562 324.976562 331.050781 324.523438 C 330.75 324.074219 330.976562 322.875 331.351562 322.574219 C 331.726562 322.273438 333.375 322.726562 333.375 322.726562 " clip-rule="nonzero"/></clipPath><clipPath id="efc6c1a919"><path d="M 321.277344 316.398438 L 324.234375 316.398438 L 324.234375 319.503906 L 321.277344 319.503906 Z M 321.277344 316.398438 " clip-rule="nonzero"/></clipPath><clipPath id="df7557fad1"><path d="M 324.226562 317.476562 C 322.949219 319.5 321.75 319.125 321.523438 318.675781 C 321.300781 318.226562 321.523438 317.023438 321.898438 316.726562 C 322.273438 316.425781 323.851562 316.875 323.851562 316.875 " clip-rule="nonzero"/></clipPath><clipPath id="165b68c925"><path d="M 310.328125 317.148438 L 313.285156 317.148438 L 313.285156 320 L 310.328125 320 Z M 310.328125 317.148438 " clip-rule="nonzero"/></clipPath><clipPath id="0d403b7526"><path d="M 313.273438 318.226562 C 312 320.25 310.800781 319.875 310.574219 319.425781 C 310.351562 318.976562 310.574219 317.773438 310.949219 317.476562 C 311.324219 317.175781 312.898438 317.625 312.898438 317.625 " clip-rule="nonzero"/></clipPath><clipPath id="416afe71a6"><path d="M 295.242188 319.167969 L 298.832031 319.167969 L 298.832031 323.207031 L 295.242188 323.207031 Z M 295.242188 319.167969 " clip-rule="nonzero"/></clipPath><clipPath id="6d6d1a9b46"><path d="M 295.875 322.273438 C 295.425781 320.023438 295.875 319.5 296.25 319.351562 C 296.625 319.199219 297.226562 319.273438 297.601562 319.5 C 297.976562 319.726562 298.351562 320.324219 298.351562 320.699219 C 298.351562 321.148438 298.050781 321.75 297.675781 321.976562 C 297.375 322.199219 296.699219 322.273438 296.324219 322.125 C 295.949219 321.976562 295.425781 321.523438 295.351562 321.148438 C 295.273438 320.773438 295.351562 320.023438 295.726562 319.726562 C 296.101562 319.425781 297.375 319.351562 297.898438 319.648438 C 298.351562 319.949219 298.648438 320.699219 298.726562 321.226562 C 298.800781 321.675781 298.648438 322.273438 298.351562 322.574219 C 298.050781 322.875 297.449219 323.175781 297 323.101562 C 296.625 323.023438 295.875 322.273438 295.875 322.273438 " clip-rule="nonzero"/></clipPath><clipPath id="b0f6a17c51"><path d="M 289.09375 334 L 292.144531 334 L 292.144531 337 L 289.09375 337 Z M 289.09375 334 " clip-rule="nonzero"/></clipPath><clipPath id="96cd210bf5"><path d="M 292.125 335.023438 C 290.851562 337.050781 289.574219 336.675781 289.351562 336.226562 C 289.125 335.773438 289.351562 334.574219 289.726562 334.273438 C 290.101562 333.976562 291.75 334.425781 291.75 334.425781 " clip-rule="nonzero"/></clipPath><clipPath id="a5fb2b7900"><path d="M 330.734375 338.371094 L 333.757812 338.371094 L 333.757812 341 L 330.734375 341 Z M 330.734375 338.371094 " clip-rule="nonzero"/></clipPath><clipPath id="76997e1405"><path d="M 333.75 339.375 C 332.476562 341.476562 331.351562 341.101562 331.050781 340.648438 C 330.75 340.199219 330.976562 339 331.351562 338.699219 C 331.726562 338.398438 333.375 338.773438 333.375 338.773438 " clip-rule="nonzero"/></clipPath><clipPath id="ea5c8312bb"><path d="M 349.027344 332.523438 L 351.984375 332.523438 L 351.984375 335.628906 L 349.027344 335.628906 Z M 349.027344 332.523438 " clip-rule="nonzero"/></clipPath><clipPath id="a276e5cbf8"><path d="M 351.976562 333.523438 C 350.773438 335.625 349.5 335.25 349.273438 334.800781 C 349.050781 334.351562 349.273438 333.148438 349.648438 332.851562 C 350.023438 332.550781 351.601562 332.925781 351.601562 332.925781 " clip-rule="nonzero"/></clipPath><clipPath id="62d5fbf238"><path d="M 343.175781 329.597656 L 346.132812 329.597656 L 346.132812 332.703125 L 343.175781 332.703125 Z M 343.175781 329.597656 " clip-rule="nonzero"/></clipPath><clipPath id="ccfb960c9c"><path d="M 346.125 330.675781 C 344.925781 332.699219 343.648438 332.324219 343.425781 331.875 C 343.199219 331.425781 343.425781 330.226562 343.800781 329.925781 C 344.175781 329.625 345.824219 330 345.824219 330 " clip-rule="nonzero"/></clipPath><clipPath id="23367ec1f9"><path d="M 322.027344 331.773438 L 324.984375 331.773438 L 324.984375 334.878906 L 322.027344 334.878906 Z M 322.027344 331.773438 " clip-rule="nonzero"/></clipPath><clipPath id="0fc1070d84"><path d="M 324.976562 332.851562 C 323.699219 334.875 322.5 334.5 322.273438 334.050781 C 322.050781 333.601562 322.273438 332.398438 322.648438 332.101562 C 323.023438 331.800781 324.601562 332.25 324.601562 332.25 " clip-rule="nonzero"/></clipPath><clipPath id="e99e4ee222"><path d="M 311.742188 329 L 314.792969 329 L 314.792969 331.953125 L 311.742188 331.953125 Z M 311.742188 329 " clip-rule="nonzero"/></clipPath><clipPath id="52c84c4c7e"><path d="M 314.773438 329.925781 C 313.5 331.949219 312.226562 331.574219 312 331.125 C 311.773438 330.675781 312 329.476562 312.375 329.175781 C 312.75 328.875 314.398438 329.324219 314.398438 329.324219 " clip-rule="nonzero"/></clipPath><clipPath id="827000951b"><path d="M 414.054688 331.023438 L 417 331.023438 L 417 334 L 414.054688 334 Z M 414.054688 331.023438 " clip-rule="nonzero"/></clipPath><clipPath id="1aa9fdc0b1"><path d="M 417 332.101562 C 415.800781 334.125 414.523438 333.75 414.300781 333.300781 C 414.074219 332.851562 414.300781 331.648438 414.675781 331.351562 C 415.050781 331.050781 416.625 331.5 416.625 331.5 " clip-rule="nonzero"/></clipPath><clipPath id="90298c1440"><path d="M 406.027344 324.496094 L 408.984375 324.496094 L 408.984375 327.601562 L 406.027344 327.601562 Z M 406.027344 324.496094 " clip-rule="nonzero"/></clipPath><clipPath id="da0cfbaf9c"><path d="M 408.976562 325.5 C 407.699219 327.601562 406.5 327.226562 406.273438 326.773438 C 406.050781 326.324219 406.273438 325.125 406.648438 324.824219 C 407.023438 324.523438 408.601562 324.898438 408.601562 324.898438 " clip-rule="nonzero"/></clipPath><clipPath id="baaed428d8"><path d="M 390 321.570312 L 392.933594 321.570312 L 392.933594 324.679688 L 390 324.679688 Z M 390 321.570312 " clip-rule="nonzero"/></clipPath><clipPath id="3f47c61fce"><path d="M 392.925781 322.574219 C 391.648438 324.675781 390.449219 324.300781 390.226562 323.851562 C 390 323.398438 390.226562 322.199219 390.601562 321.898438 C 390.976562 321.601562 392.550781 321.976562 392.550781 321.976562 " clip-rule="nonzero"/></clipPath><clipPath id="3b7f980f9a"><path d="M 388.71875 333.878906 L 392.410156 333.878906 L 392.410156 337 L 388.71875 337 Z M 388.71875 333.878906 " clip-rule="nonzero"/></clipPath><clipPath id="1655b1f126"><path d="M 390.375 336.976562 C 388.875 336 388.800781 335.324219 388.949219 334.949219 C 389.101562 334.574219 389.625 334.050781 390 333.976562 C 390.375 333.898438 391.050781 334.050781 391.351562 334.351562 C 391.648438 334.648438 391.875 335.25 391.800781 335.699219 C 391.726562 336.148438 390.976562 336.898438 390.523438 336.976562 C 390.074219 337.050781 389.476562 336.75 389.175781 336.449219 C 388.875 336.148438 388.726562 335.476562 388.875 335.101562 C 389.101562 334.574219 390.074219 333.898438 390.675781 333.898438 C 391.273438 333.898438 392.25 334.726562 392.324219 335.25 C 392.398438 335.773438 391.199219 336.976562 391.199219 336.976562 " clip-rule="nonzero"/></clipPath><clipPath id="0332b53c21"><path d="M 376.035156 334 L 379.058594 334 L 379.058594 337 L 376.035156 337 Z M 376.035156 334 " clip-rule="nonzero"/></clipPath><clipPath id="a4e8a50646"><path d="M 379.050781 335.023438 C 377.773438 337.050781 376.648438 336.675781 376.351562 336.226562 C 376.050781 335.773438 376.273438 334.574219 376.648438 334.273438 C 377.023438 333.976562 378.675781 334.425781 378.675781 334.425781 " clip-rule="nonzero"/></clipPath><clipPath id="89da60c7ce"><path d="M 367.328125 323 L 370.285156 323 L 370.285156 326 L 367.328125 326 Z M 367.328125 323 " clip-rule="nonzero"/></clipPath><clipPath id="1f29756404"><path d="M 370.273438 324.074219 C 369 326.101562 367.800781 325.726562 367.574219 325.273438 C 367.351562 324.824219 367.574219 323.625 367.949219 323.324219 C 368.324219 323.023438 369.898438 323.476562 369.898438 323.476562 " clip-rule="nonzero"/></clipPath><clipPath id="79c50608c7"><path d="M 382.617188 321.570312 L 385.667969 321.570312 L 385.667969 324.679688 L 382.617188 324.679688 Z M 382.617188 321.570312 " clip-rule="nonzero"/></clipPath><clipPath id="e45aa96c3b"><path d="M 385.648438 322.574219 C 384.375 324.675781 383.101562 324.300781 382.875 323.851562 C 382.648438 323.398438 382.875 322.199219 383.25 321.898438 C 383.625 321.601562 385.273438 321.976562 385.273438 321.976562 " clip-rule="nonzero"/></clipPath><clipPath id="bf7d63720f"><path d="M 382 329.597656 L 384.910156 329.597656 L 384.910156 332.703125 L 382 332.703125 Z M 382 329.597656 " clip-rule="nonzero"/></clipPath><clipPath id="db6df1e4f5"><path d="M 384.898438 330.675781 C 383.625 332.699219 382.5 332.324219 382.199219 331.875 C 381.898438 331.425781 382.125 330.226562 382.5 329.925781 C 382.875 329.625 384.523438 330 384.523438 330 " clip-rule="nonzero"/></clipPath><clipPath id="630e1e48f7"><path d="M 401.609375 329.597656 L 404.632812 329.597656 L 404.632812 332.703125 L 401.609375 332.703125 Z M 401.609375 329.597656 " clip-rule="nonzero"/></clipPath><clipPath id="608c48167a"><path d="M 404.625 330.675781 C 403.351562 332.699219 402.226562 332.324219 401.925781 331.875 C 401.625 331.425781 401.851562 330.226562 402.226562 329.925781 C 402.601562 329.625 404.25 330 404.25 330 " clip-rule="nonzero"/></clipPath><clipPath id="7a68d72260"><path d="M 409.703125 341.296875 L 412.660156 341.296875 L 412.660156 344 L 409.703125 344 Z M 409.703125 341.296875 " clip-rule="nonzero"/></clipPath><clipPath id="22281b883e"><path d="M 412.648438 342.300781 C 411.375 344.398438 410.175781 344.023438 409.949219 343.574219 C 409.726562 343.125 409.949219 341.925781 410.324219 341.625 C 410.699219 341.324219 412.273438 341.699219 412.273438 341.699219 " clip-rule="nonzero"/></clipPath><clipPath id="e44dfd53c7"><path d="M 395.757812 321.570312 L 398.785156 321.570312 L 398.785156 324.679688 L 395.757812 324.679688 Z M 395.757812 321.570312 " clip-rule="nonzero"/></clipPath><clipPath id="dd6f000175"><path d="M 398.773438 322.574219 C 397.5 324.675781 396.375 324.300781 396.074219 323.851562 C 395.773438 323.398438 396 322.199219 396.375 321.898438 C 396.75 321.601562 398.398438 321.976562 398.398438 321.976562 " clip-rule="nonzero"/></clipPath><clipPath id="c62f6e0a6b"><path d="M 373.109375 315.722656 L 376.132812 315.722656 L 376.132812 318.828125 L 373.109375 318.828125 Z M 373.109375 315.722656 " clip-rule="nonzero"/></clipPath><clipPath id="9908b1051a"><path d="M 376.125 316.726562 C 374.851562 318.824219 373.726562 318.449219 373.425781 318 C 373.125 317.550781 373.351562 316.351562 373.726562 316.050781 C 374.101562 315.75 375.75 316.125 375.75 316.125 " clip-rule="nonzero"/></clipPath><clipPath id="fd875f85bf"><path d="M 375.207031 323.617188 L 378.46875 323.617188 L 378.46875 327.234375 L 375.207031 327.234375 Z M 375.207031 323.617188 " clip-rule="nonzero"/></clipPath><clipPath id="b3f8b71742"><path d="M 378.375 325.648438 C 376.425781 327.226562 375.824219 326.773438 375.601562 326.398438 C 375.375 326.023438 375.375 325.425781 375.523438 325.050781 C 375.675781 324.675781 376.199219 324.226562 376.648438 324.148438 C 377.023438 324.074219 377.699219 324.300781 378 324.601562 C 378.300781 324.898438 378.449219 325.574219 378.375 325.949219 C 378.300781 326.398438 377.773438 326.925781 377.398438 327.074219 C 377.023438 327.226562 376.425781 327.148438 376.050781 326.925781 C 375.675781 326.625 375.226562 325.800781 375.300781 325.273438 C 375.375 324.75 376.125 323.773438 376.648438 323.699219 C 377.175781 323.625 378.375 324.824219 378.375 324.824219 " clip-rule="nonzero"/></clipPath><clipPath id="986085f6bd"><path d="M 368.753906 329.597656 L 371.710938 329.597656 L 371.710938 332.703125 L 368.753906 332.703125 Z M 368.753906 329.597656 " clip-rule="nonzero"/></clipPath><clipPath id="3473955188"><path d="M 371.699219 330.675781 C 370.5 332.699219 369.226562 332.324219 369 331.875 C 368.773438 331.425781 369 330.226562 369.375 329.925781 C 369.75 329.625 371.324219 330 371.324219 330 " clip-rule="nonzero"/></clipPath><clipPath id="6b35f5d6f1"><path d="M 397.855469 340.417969 L 401.117188 340.417969 L 401.117188 344 L 397.855469 344 Z M 397.855469 340.417969 " clip-rule="nonzero"/></clipPath><clipPath id="5bb09392c7"><path d="M 401.023438 342.449219 C 399.074219 344.023438 398.476562 343.648438 398.25 343.273438 C 398.023438 342.898438 398.023438 342.226562 398.175781 341.851562 C 398.324219 341.476562 398.851562 341.023438 399.300781 340.949219 C 399.675781 340.875 400.351562 341.101562 400.648438 341.398438 C 400.949219 341.699219 401.101562 342.375 401.023438 342.824219 C 400.949219 343.199219 400.425781 343.726562 400.050781 343.875 C 399.675781 344.023438 399.074219 343.949219 398.699219 343.726562 C 398.324219 343.425781 397.875 342.601562 397.949219 342.074219 C 398.023438 341.550781 398.773438 340.574219 399.300781 340.5 C 399.824219 340.425781 401.023438 341.625 401.023438 341.625 " clip-rule="nonzero"/></clipPath><clipPath id="1166afb49f"><path d="M 412.628906 350.746094 L 415.585938 350.746094 L 415.585938 353.851562 L 412.628906 353.851562 Z M 412.628906 350.746094 " clip-rule="nonzero"/></clipPath><clipPath id="da792922c6"><path d="M 415.574219 351.824219 C 414.300781 353.851562 413.101562 353.476562 412.875 353.023438 C 412.648438 352.574219 412.875 351.375 413.25 351.074219 C 413.625 350.773438 415.199219 351.226562 415.199219 351.226562 " clip-rule="nonzero"/></clipPath><clipPath id="a3f74e53c5"><path d="M 419.839844 345.511719 L 423.457031 345.511719 L 423.457031 348.773438 L 419.839844 348.773438 Z M 419.839844 345.511719 " clip-rule="nonzero"/></clipPath><clipPath id="0d315455e4"><path d="M 421.875 345.675781 C 423.449219 347.625 423 348.226562 422.625 348.449219 C 422.25 348.675781 421.574219 348.675781 421.199219 348.523438 C 420.824219 348.375 420.449219 347.773438 420.375 347.398438 C 420.300781 346.949219 420.523438 346.351562 420.824219 346.050781 C 421.125 345.75 421.800781 345.523438 422.175781 345.675781 C 422.625 345.824219 423.375 346.648438 423.375 347.101562 C 423.300781 347.625 422.101562 348.75 421.5 348.75 C 420.976562 348.75 420 347.925781 419.925781 347.398438 C 419.851562 346.875 421.050781 345.675781 421.050781 345.675781 " clip-rule="nonzero"/></clipPath><clipPath id="86e9332f5f"><path d="M 429.425781 337 L 432.382812 337 L 432.382812 339.976562 L 429.425781 339.976562 Z M 429.425781 337 " clip-rule="nonzero"/></clipPath><clipPath id="95adb0b845"><path d="M 432.375 337.949219 C 431.101562 339.976562 429.898438 339.601562 429.675781 339.148438 C 429.449219 338.699219 429.675781 337.5 430.050781 337.199219 C 430.425781 336.898438 432 337.351562 432 337.351562 " clip-rule="nonzero"/></clipPath><clipPath id="8beace3a5b"><path d="M 419.140625 329 L 422.191406 329 L 422.191406 331.953125 L 419.140625 331.953125 Z M 419.140625 329 " clip-rule="nonzero"/></clipPath><clipPath id="219c0c6bd5"><path d="M 422.175781 329.925781 C 420.898438 331.949219 419.625 331.574219 419.398438 331.125 C 419.175781 330.675781 419.398438 329.476562 419.773438 329.175781 C 420.148438 328.875 421.800781 329.324219 421.800781 329.324219 " clip-rule="nonzero"/></clipPath><clipPath id="927c83d3be"><path d="M 417.726562 339.046875 L 420.683594 339.046875 L 420.683594 342 L 417.726562 342 Z M 417.726562 339.046875 " clip-rule="nonzero"/></clipPath><clipPath id="e4eb006557"><path d="M 420.675781 340.125 C 419.398438 342.148438 418.199219 341.773438 417.976562 341.324219 C 417.75 340.875 417.976562 339.675781 418.351562 339.375 C 418.726562 339.074219 420.300781 339.523438 420.300781 339.523438 " clip-rule="nonzero"/></clipPath><clipPath id="83e66d3eb5"><path d="M 405.265625 335.445312 L 408.316406 335.445312 L 408.316406 338.554688 L 405.265625 338.554688 Z M 405.265625 335.445312 " clip-rule="nonzero"/></clipPath><clipPath id="7a8d5bc135"><path d="M 408.300781 336.449219 C 407.023438 338.550781 405.75 338.175781 405.523438 337.726562 C 405.300781 337.273438 405.523438 336.074219 405.898438 335.773438 C 406.273438 335.476562 407.925781 335.851562 407.925781 335.851562 " clip-rule="nonzero"/></clipPath><clipPath id="ad66e676bd"><path d="M 393.566406 317.148438 L 396.617188 317.148438 L 396.617188 320 L 393.566406 320 Z M 393.566406 317.148438 " clip-rule="nonzero"/></clipPath><clipPath id="6a4481f03e"><path d="M 396.601562 318.226562 C 395.324219 320.25 394.050781 319.875 393.824219 319.425781 C 393.601562 318.976562 393.824219 317.773438 394.199219 317.476562 C 394.574219 317.175781 396.226562 317.625 396.226562 317.625 " clip-rule="nonzero"/></clipPath><clipPath id="0b1f30be43"><path d="M 358.550781 321 L 361.507812 321 L 361.507812 323.929688 L 358.550781 323.929688 Z M 358.550781 321 " clip-rule="nonzero"/></clipPath><clipPath id="312f169b7e"><path d="M 361.5 321.898438 C 360.226562 323.925781 359.023438 323.550781 358.800781 323.101562 C 358.574219 322.648438 358.800781 321.449219 359.175781 321.148438 C 359.550781 320.851562 361.125 321.226562 361.125 321.226562 " clip-rule="nonzero"/></clipPath><clipPath id="ae16fde864"><path d="M 360 326 L 363 326 L 363 329 L 360 329 Z M 360 326 " clip-rule="nonzero"/></clipPath><clipPath id="04865d2959"><path d="M 363 327 C 361.726562 329.023438 360.449219 328.648438 360.226562 328.199219 C 360 327.75 360.226562 326.550781 360.601562 326.25 C 360.976562 325.949219 362.625 326.398438 362.625 326.398438 " clip-rule="nonzero"/></clipPath><clipPath id="19b294eda7"><path d="M 374.601562 343.472656 L 377.558594 343.472656 L 377.558594 346.578125 L 374.601562 346.578125 Z M 374.601562 343.472656 " clip-rule="nonzero"/></clipPath><clipPath id="e2e658d7d5"><path d="M 377.550781 344.550781 C 376.273438 346.574219 375.074219 346.199219 374.851562 345.75 C 374.625 345.300781 374.851562 344.101562 375.226562 343.800781 C 375.601562 343.5 377.175781 343.875 377.175781 343.875 " clip-rule="nonzero"/></clipPath><clipPath id="e6f0c6ebf3"><path d="M 429.425781 354.421875 L 432.382812 354.421875 L 432.382812 357.527344 L 429.425781 357.527344 Z M 429.425781 354.421875 " clip-rule="nonzero"/></clipPath><clipPath id="f5dbe7b1b3"><path d="M 432.375 355.5 C 431.101562 357.523438 429.898438 357.148438 429.675781 356.699219 C 429.449219 356.25 429.675781 355.050781 430.050781 354.75 C 430.425781 354.449219 432 354.898438 432 354.898438 " clip-rule="nonzero"/></clipPath><clipPath id="d4e1ce65cc"><path d="M 436.703125 367 L 439.660156 367 L 439.660156 369.976562 L 436.703125 369.976562 Z M 436.703125 367 " clip-rule="nonzero"/></clipPath><clipPath id="e95b7fef8b"><path d="M 439.648438 367.875 C 438.449219 369.976562 437.175781 369.601562 436.949219 369.148438 C 436.726562 368.699219 436.949219 367.5 437.324219 367.199219 C 437.699219 366.898438 439.273438 367.273438 439.273438 367.273438 " clip-rule="nonzero"/></clipPath><clipPath id="720b4b7880"><path d="M 417 367 L 419.933594 367 L 419.933594 369.976562 L 417 369.976562 Z M 417 367 " clip-rule="nonzero"/></clipPath><clipPath id="de17599087"><path d="M 419.925781 367.875 C 418.726562 369.976562 417.449219 369.601562 417.226562 369.148438 C 417 368.699219 417.226562 367.5 417.601562 367.199219 C 417.976562 366.898438 419.550781 367.273438 419.550781 367.273438 " clip-rule="nonzero"/></clipPath><clipPath id="bf98d49bde"><path d="M 423.578125 368.296875 L 426.535156 368.296875 L 426.535156 371 L 423.578125 371 Z M 423.578125 368.296875 " clip-rule="nonzero"/></clipPath><clipPath id="0af4032e90"><path d="M 426.523438 369.375 C 425.25 371.398438 424.050781 371.023438 423.824219 370.574219 C 423.601562 370.125 423.824219 368.925781 424.199219 368.625 C 424.574219 368.324219 426.148438 368.773438 426.148438 368.773438 " clip-rule="nonzero"/></clipPath><clipPath id="26a094ed20"><path d="M 213.128906 325.171875 L 216.085938 325.171875 L 216.085938 328 L 213.128906 328 Z M 213.128906 325.171875 " clip-rule="nonzero"/></clipPath><clipPath id="51e6d09e0d"><path d="M 216.074219 326.25 C 214.875 328.273438 213.601562 327.898438 213.375 327.449219 C 213.148438 327 213.375 325.800781 213.75 325.5 C 214.125 325.199219 215.699219 325.648438 215.699219 325.648438 " clip-rule="nonzero"/></clipPath><clipPath id="ac6f027f3c"><path d="M 228.503906 323 L 231.460938 323 L 231.460938 326 L 228.503906 326 Z M 228.503906 323 " clip-rule="nonzero"/></clipPath><clipPath id="f57bd3dae6"><path d="M 231.449219 324.074219 C 230.175781 326.101562 228.976562 325.726562 228.75 325.273438 C 228.523438 324.824219 228.75 323.625 229.125 323.324219 C 229.5 323.023438 231.074219 323.476562 231.074219 323.476562 " clip-rule="nonzero"/></clipPath><clipPath id="50094fd5ad"><path d="M 241.628906 328.097656 L 244.585938 328.097656 L 244.585938 331 L 241.628906 331 Z M 241.628906 328.097656 " clip-rule="nonzero"/></clipPath><clipPath id="898b347cb0"><path d="M 244.574219 329.175781 C 243.300781 331.199219 242.101562 330.824219 241.875 330.375 C 241.648438 329.925781 241.875 328.726562 242.25 328.425781 C 242.625 328.125 244.199219 328.574219 244.199219 328.574219 " clip-rule="nonzero"/></clipPath><clipPath id="74471f37a4"><path d="M 245.160156 322.492188 L 248.421875 322.492188 L 248.421875 326.109375 L 245.160156 326.109375 Z M 245.160156 322.492188 " clip-rule="nonzero"/></clipPath><clipPath id="bd9bdc0b5d"><path d="M 245.324219 324.074219 C 247.273438 322.5 247.875 322.949219 248.101562 323.324219 C 248.324219 323.699219 248.324219 324.375 248.175781 324.75 C 248.023438 325.125 247.425781 325.5 247.050781 325.574219 C 246.601562 325.648438 246 325.425781 245.699219 325.125 C 245.398438 324.824219 245.175781 324.148438 245.324219 323.773438 C 245.476562 323.324219 246.300781 322.574219 246.75 322.574219 C 247.273438 322.648438 248.398438 323.851562 248.398438 324.449219 C 248.398438 324.976562 247.574219 325.949219 247.050781 326.023438 C 246.523438 326.101562 245.324219 324.898438 245.324219 324.898438 " clip-rule="nonzero"/></clipPath><clipPath id="32172f0ab4"><path d="M 238 317.148438 L 240.992188 317.148438 L 240.992188 320 L 238 320 Z M 238 317.148438 " clip-rule="nonzero"/></clipPath><clipPath id="64c1ec2791"><path d="M 240.976562 318.226562 C 239.699219 320.25 238.425781 319.875 238.199219 319.425781 C 237.976562 318.976562 238.199219 317.773438 238.574219 317.476562 C 238.949219 317.175781 240.601562 317.625 240.601562 317.625 " clip-rule="nonzero"/></clipPath><clipPath id="8bca8f4d7f"><path d="M 225.140625 333.738281 L 228.609375 333.738281 L 228.609375 337.445312 L 225.140625 337.445312 Z M 225.140625 333.738281 " clip-rule="nonzero"/></clipPath><clipPath id="3124cb7258"><path d="M 227.699219 336.976562 C 225.226562 336.675781 225.148438 335.925781 225.226562 335.550781 C 225.300781 335.175781 225.75 334.648438 226.125 334.5 C 226.5 334.351562 227.25 334.351562 227.550781 334.648438 C 227.925781 334.949219 228.226562 335.925781 228.074219 336.375 C 228 336.824219 227.398438 337.273438 227.023438 337.351562 C 226.648438 337.425781 225.976562 337.273438 225.675781 336.976562 C 225.375 336.675781 225.148438 336.148438 225.148438 335.699219 C 225.148438 335.175781 225.601562 334.5 226.050781 334.199219 C 226.5 333.898438 227.476562 333.75 227.925781 334.050781 C 228.375 334.351562 228.601562 336.074219 228.601562 336.074219 " clip-rule="nonzero"/></clipPath><clipPath id="4e4b51d219"><path d="M 216.660156 333.425781 L 219.921875 333.425781 L 219.921875 337.074219 L 216.660156 337.074219 Z M 216.660156 333.425781 " clip-rule="nonzero"/></clipPath><clipPath id="75878989ef"><path d="M 216.824219 335.023438 C 218.773438 333.449219 219.375 333.898438 219.601562 334.273438 C 219.824219 334.648438 219.824219 335.324219 219.675781 335.699219 C 219.523438 336.074219 218.925781 336.449219 218.550781 336.523438 C 218.101562 336.601562 217.5 336.375 217.199219 336.074219 C 216.898438 335.773438 216.675781 335.101562 216.824219 334.726562 C 216.976562 334.273438 217.800781 333.523438 218.25 333.523438 C 218.773438 333.601562 219.898438 334.800781 219.898438 335.398438 C 219.898438 336 218.699219 337.050781 218.175781 337.050781 C 217.726562 337.050781 216.824219 335.925781 216.824219 335.925781 " clip-rule="nonzero"/></clipPath><clipPath id="193ae53189"><path d="M 204.351562 344.222656 L 207.308594 344.222656 L 207.308594 347 L 204.351562 347 Z M 204.351562 344.222656 " clip-rule="nonzero"/></clipPath><clipPath id="d2c045a807"><path d="M 207.300781 345.226562 C 206.101562 347.324219 204.824219 346.949219 204.601562 346.5 C 204.375 346.050781 204.601562 344.851562 204.976562 344.550781 C 205.351562 344.25 207 344.625 207 344.625 " clip-rule="nonzero"/></clipPath><clipPath id="9ecc90f031"><path d="M 219.726562 344.222656 L 222.683594 344.222656 L 222.683594 347 L 219.726562 347 Z M 219.726562 344.222656 " clip-rule="nonzero"/></clipPath><clipPath id="8db99bcd42"><path d="M 222.675781 345.226562 C 221.398438 347.324219 220.199219 346.949219 219.976562 346.5 C 219.75 346.050781 219.976562 344.851562 220.351562 344.550781 C 220.726562 344.25 222.300781 344.625 222.300781 344.625 " clip-rule="nonzero"/></clipPath><clipPath id="3cf9e10d40"><path d="M 231.425781 344.222656 L 234.382812 344.222656 L 234.382812 347 L 231.425781 347 Z M 231.425781 344.222656 " clip-rule="nonzero"/></clipPath><clipPath id="800d1b0837"><path d="M 234.375 345.226562 C 233.101562 347.324219 231.898438 346.949219 231.675781 346.5 C 231.449219 346.050781 231.675781 344.851562 232.050781 344.550781 C 232.425781 344.25 234 344.625 234 344.625 " clip-rule="nonzero"/></clipPath><clipPath id="629e7df948"><path d="M 219 350.746094 L 221.933594 350.746094 L 221.933594 353.851562 L 219 353.851562 Z M 219 350.746094 " clip-rule="nonzero"/></clipPath><clipPath id="014581373d"><path d="M 221.925781 351.824219 C 220.648438 353.851562 219.449219 353.476562 219.226562 353.023438 C 219 352.574219 219.226562 351.375 219.601562 351.074219 C 219.976562 350.773438 221.550781 351.226562 221.550781 351.226562 " clip-rule="nonzero"/></clipPath><clipPath id="f25e059dc5"><path d="M 198.492188 331.773438 L 201.542969 331.773438 L 201.542969 334.878906 L 198.492188 334.878906 Z M 198.492188 331.773438 " clip-rule="nonzero"/></clipPath><clipPath id="19bc862494"><path d="M 201.523438 332.851562 C 200.25 334.875 198.976562 334.5 198.75 334.050781 C 198.523438 333.601562 198.75 332.398438 199.125 332.101562 C 199.5 331.800781 201.148438 332.25 201.148438 332.25 " clip-rule="nonzero"/></clipPath><clipPath id="0f991ac5aa"><path d="M 192.214844 346.257812 L 195.832031 346.257812 L 195.832031 349.449219 L 192.214844 349.449219 Z M 192.214844 346.257812 " clip-rule="nonzero"/></clipPath><clipPath id="1312b81a4c"><path d="M 193.800781 349.425781 C 192.300781 347.324219 192.675781 346.800781 193.050781 346.574219 C 193.425781 346.351562 194.023438 346.351562 194.398438 346.5 C 194.773438 346.648438 195.226562 347.175781 195.300781 347.625 C 195.375 348 195.148438 348.675781 194.851562 348.976562 C 194.550781 349.273438 193.875 349.425781 193.5 349.351562 C 193.050781 349.273438 192.523438 348.824219 192.375 348.449219 C 192.226562 348.074219 192.300781 347.398438 192.523438 347.023438 C 192.824219 346.648438 193.648438 346.273438 194.175781 346.351562 C 194.699219 346.425781 195.675781 347.101562 195.75 347.625 C 195.824219 348.148438 194.625 349.425781 194.625 349.425781 " clip-rule="nonzero"/></clipPath><clipPath id="aa6a0b30c0"><path d="M 181.703125 349.320312 L 184.660156 349.320312 L 184.660156 352 L 181.703125 352 Z M 181.703125 349.320312 " clip-rule="nonzero"/></clipPath><clipPath id="0f1e7ab9a7"><path d="M 184.648438 350.398438 C 183.449219 352.425781 182.175781 352.050781 181.949219 351.601562 C 181.726562 351.148438 181.949219 349.949219 182.324219 349.648438 C 182.699219 349.351562 184.351562 349.726562 184.351562 349.726562 " clip-rule="nonzero"/></clipPath><clipPath id="bf8412e61e"><path d="M 192 355.171875 L 194.933594 355.171875 L 194.933594 358 L 192 358 Z M 192 355.171875 " clip-rule="nonzero"/></clipPath><clipPath id="0e16d44c6e"><path d="M 194.925781 356.175781 C 193.648438 358.273438 192.523438 357.898438 192.226562 357.449219 C 191.925781 357 192.148438 355.800781 192.523438 355.5 C 192.898438 355.199219 194.550781 355.574219 194.550781 355.574219 " clip-rule="nonzero"/></clipPath><clipPath id="da48bb9692"><path d="M 211 355.171875 L 213.910156 355.171875 L 213.910156 358 L 211 358 Z M 211 355.171875 " clip-rule="nonzero"/></clipPath><clipPath id="607896cb42"><path d="M 213.898438 356.175781 C 212.625 358.273438 211.425781 357.898438 211.199219 357.449219 C 210.976562 357 211.199219 355.800781 211.574219 355.5 C 211.949219 355.199219 213.523438 355.574219 213.523438 355.574219 " clip-rule="nonzero"/></clipPath><clipPath id="466053534a"><path d="M 200.003906 368.296875 L 202.960938 368.296875 L 202.960938 371 L 200.003906 371 Z M 200.003906 368.296875 " clip-rule="nonzero"/></clipPath><clipPath id="50a061ff74"><path d="M 202.949219 369.375 C 201.675781 371.398438 200.476562 371.023438 200.25 370.574219 C 200.023438 370.125 200.25 368.925781 200.625 368.625 C 201 368.324219 202.574219 368.773438 202.574219 368.773438 " clip-rule="nonzero"/></clipPath><clipPath id="0de7f9518a"><path d="M 192 372.648438 L 194.933594 372.648438 L 194.933594 375.753906 L 192 375.753906 Z M 192 372.648438 " clip-rule="nonzero"/></clipPath><clipPath id="bbdd9d7cad"><path d="M 194.925781 373.726562 C 193.648438 375.75 192.523438 375.449219 192.226562 375 C 191.925781 374.550781 192.148438 373.273438 192.523438 372.976562 C 192.898438 372.675781 194.550781 373.125 194.550781 373.125 " clip-rule="nonzero"/></clipPath><clipPath id="6fde1913ba"><path d="M 204.351562 374.148438 L 207.308594 374.148438 L 207.308594 377 L 204.351562 377 Z M 204.351562 374.148438 " clip-rule="nonzero"/></clipPath><clipPath id="38da921139"><path d="M 207.300781 375.226562 C 206.101562 377.25 204.824219 376.875 204.601562 376.425781 C 204.375 375.976562 204.601562 374.773438 204.976562 374.476562 C 205.351562 374.175781 207 374.625 207 374.625 " clip-rule="nonzero"/></clipPath><clipPath id="ddd9987023"><path d="M 341.003906 358.773438 L 343.960938 358.773438 L 343.960938 361.878906 L 341.003906 361.878906 Z M 341.003906 358.773438 " clip-rule="nonzero"/></clipPath><clipPath id="36e7b8c81b"><path d="M 343.949219 359.851562 C 342.675781 361.875 341.476562 361.5 341.25 361.050781 C 341.023438 360.601562 341.25 359.398438 341.625 359.101562 C 342 358.800781 343.574219 359.25 343.574219 359.25 " clip-rule="nonzero"/></clipPath><clipPath id="b80c76b39e"><path d="M 349.777344 348.570312 L 352.734375 348.570312 L 352.734375 351.679688 L 349.777344 351.679688 Z M 349.777344 348.570312 " clip-rule="nonzero"/></clipPath><clipPath id="da3208a40c"><path d="M 352.726562 349.648438 C 351.449219 351.675781 350.25 351.300781 350.023438 350.851562 C 349.800781 350.398438 350.023438 349.199219 350.398438 348.898438 C 350.773438 348.601562 352.351562 349.050781 352.351562 349.050781 " clip-rule="nonzero"/></clipPath><clipPath id="e2331f6a2d"><path d="M 344 347.148438 L 346.882812 347.148438 L 346.882812 350 L 344 350 Z M 344 347.148438 " clip-rule="nonzero"/></clipPath><clipPath id="dbbaf87199"><path d="M 346.875 348.148438 C 345.601562 350.25 344.398438 349.875 344.175781 349.425781 C 343.949219 348.976562 344.175781 347.773438 344.550781 347.476562 C 344.925781 347.175781 346.5 347.550781 346.5 347.550781 " clip-rule="nonzero"/></clipPath><clipPath id="99521b44bc"><path d="M 282.507812 344.222656 L 285.535156 344.222656 L 285.535156 347 L 282.507812 347 Z M 282.507812 344.222656 " clip-rule="nonzero"/></clipPath><clipPath id="f90459869e"><path d="M 285.523438 345.226562 C 284.25 347.324219 283.125 346.949219 282.824219 346.5 C 282.523438 346.050781 282.75 344.851562 283.125 344.550781 C 283.5 344.25 285.148438 344.625 285.148438 344.625 " clip-rule="nonzero"/></clipPath><clipPath id="6dd545c0be"><path d="M 268 348 L 270.910156 348 L 270.910156 350.929688 L 268 350.929688 Z M 268 348 " clip-rule="nonzero"/></clipPath><clipPath id="170cc20bb5"><path d="M 270.898438 348.898438 C 269.625 350.925781 268.425781 350.550781 268.199219 350.101562 C 267.976562 349.648438 268.199219 348.449219 268.574219 348.148438 C 268.949219 347.851562 270.523438 348.300781 270.523438 348.300781 " clip-rule="nonzero"/></clipPath><clipPath id="504e782b34"><path d="M 262.785156 371.222656 L 265.808594 371.222656 L 265.808594 374 L 262.785156 374 Z M 262.785156 371.222656 " clip-rule="nonzero"/></clipPath><clipPath id="d3e09225fe"><path d="M 265.800781 372.300781 C 264.523438 374.324219 263.398438 373.949219 263.101562 373.5 C 262.800781 373.050781 263.023438 371.851562 263.398438 371.550781 C 263.773438 371.25 265.425781 371.699219 265.425781 371.699219 " clip-rule="nonzero"/></clipPath><clipPath id="413947b837"><path d="M 274.484375 374.148438 L 277.507812 374.148438 L 277.507812 377 L 274.484375 377 Z M 274.484375 374.148438 " clip-rule="nonzero"/></clipPath><clipPath id="da4970cefd"><path d="M 277.5 375.226562 C 276.226562 377.25 275.101562 376.875 274.800781 376.425781 C 274.5 375.976562 274.726562 374.773438 275.101562 374.476562 C 275.476562 374.175781 277.125 374.625 277.125 374.625 " clip-rule="nonzero"/></clipPath><clipPath id="26a5493d67"><path d="M 252 359.523438 L 254.859375 359.523438 L 254.859375 362.628906 L 252 362.628906 Z M 252 359.523438 " clip-rule="nonzero"/></clipPath><clipPath id="d68da8c95b"><path d="M 254.851562 360.601562 C 253.574219 362.625 252.449219 362.25 252.148438 361.800781 C 251.851562 361.351562 252.074219 360.148438 252.449219 359.851562 C 252.824219 359.550781 254.476562 360 254.476562 360 " clip-rule="nonzero"/></clipPath><clipPath id="8b18138141"><path d="M 257 341.46875 L 260.121094 341.46875 L 260.121094 345.160156 L 257 345.160156 Z M 257 341.46875 " clip-rule="nonzero"/></clipPath><clipPath id="257c181fbc"><path d="M 257.023438 343.050781 C 258.449219 341.476562 259.199219 341.625 259.5 341.925781 C 259.800781 342.226562 260.101562 342.824219 260.023438 343.273438 C 259.949219 343.648438 259.574219 344.175781 259.199219 344.398438 C 258.824219 344.625 258.148438 344.625 257.773438 344.398438 C 257.398438 344.175781 257.101562 343.648438 257.023438 343.273438 C 256.949219 342.824219 257.25 342.226562 257.550781 341.925781 C 257.851562 341.625 258.523438 341.476562 258.898438 341.625 C 259.425781 341.851562 260.101562 342.824219 260.101562 343.425781 C 260.101562 344.023438 259.273438 345 258.75 345.074219 C 258.226562 345.148438 257.023438 343.949219 257.023438 343.949219 " clip-rule="nonzero"/></clipPath><clipPath id="f3920b8c65"><path d="M 259.851562 355.777344 L 262.972656 355.777344 L 262.972656 359.421875 L 259.851562 359.421875 Z M 259.851562 355.777344 " clip-rule="nonzero"/></clipPath><clipPath id="f3716db2fe"><path d="M 262.949219 357.824219 C 261 359.398438 260.398438 358.949219 260.175781 358.574219 C 259.949219 358.199219 259.949219 357.523438 260.101562 357.148438 C 260.25 356.773438 260.851562 356.398438 261.226562 356.324219 C 261.601562 356.25 262.273438 356.476562 262.5 356.773438 C 262.800781 357.148438 262.949219 358.125 262.726562 358.574219 C 262.574219 358.949219 261.898438 359.398438 261.523438 359.324219 C 261 359.25 259.875 358.050781 259.875 357.449219 C 259.875 356.851562 261.074219 355.800781 261.601562 355.800781 C 262.050781 355.800781 262.949219 357 262.949219 357 " clip-rule="nonzero"/></clipPath><clipPath id="5cb25bb358"><path d="M 270.128906 359.523438 L 273.085938 359.523438 L 273.085938 362.628906 L 270.128906 362.628906 Z M 270.128906 359.523438 " clip-rule="nonzero"/></clipPath><clipPath id="a60dd71d5e"><path d="M 273.074219 360.601562 C 271.800781 362.625 270.601562 362.25 270.375 361.800781 C 270.148438 361.351562 270.375 360.148438 270.75 359.851562 C 271.125 359.550781 272.699219 360 272.699219 360 " clip-rule="nonzero"/></clipPath><clipPath id="4e3f8447c5"><path d="M 415.484375 380.746094 L 418.507812 380.746094 L 418.507812 383.851562 L 415.484375 383.851562 Z M 415.484375 380.746094 " clip-rule="nonzero"/></clipPath><clipPath id="3ed476468d"><path d="M 418.5 381.75 C 417.226562 383.851562 416.101562 383.476562 415.800781 383.023438 C 415.5 382.574219 415.726562 381.375 416.101562 381.074219 C 416.476562 380.773438 418.125 381.148438 418.125 381.148438 " clip-rule="nonzero"/></clipPath></defs><g clip-path="url(#5b41c2985a)"><g clip-path="url(#6dd0be02e6)"><path fill="#eae586" d="M 165.003906 320.710938 L 302.375 320.710938 L 302.375 458.082031 L 165.003906 458.082031 Z M 165.003906 320.710938 " fill-opacity="1" fill-rule="nonzero"/></g></g><path stroke-linecap="butt" transform="matrix(0.256706, 0.703589, -0.70457, 0.257063, 141.916974, 256.167751)" fill="none" stroke-linejoin="miter" d="M 0.00171074 33.502599 L 314.438964 33.501364 " stroke="#eae586" stroke-width="67" stroke-opacity="1" stroke-miterlimit="4"/><g clip-path="url(#1c12fe1b4c)"><g clip-path="url(#76ddca9754)"><path fill="#eae586" d="M 47.273438 366.90625 L 189.355469 366.90625 L 189.355469 508.984375 L 47.273438 508.984375 Z M 47.273438 366.90625 " fill-opacity="1" fill-rule="nonzero"/></g></g><g clip-path="url(#b74f01fee2)"><g clip-path="url(#e9c406df9d)"><path stroke-linecap="butt" transform="matrix(0.748268, 0, 0, 0.748268, 47.274152, 366.905567)" fill="none" stroke-linejoin="miter" d="M 94.717803 0.000912586 C 42.409494 0.000912586 -0.000955302 42.406141 -0.000955302 94.719671 C -0.000955302 147.02798 42.409494 189.438429 94.717803 189.438429 C 147.031332 189.438429 189.436561 147.02798 189.436561 94.719671 C 189.436561 42.406141 147.031332 0.000912586 94.717803 0.000912586 " stroke="#eae586" stroke-width="6" stroke-opacity="1" stroke-miterlimit="4"/></g></g><g clip-path="url(#2dd21a0f91)"><g clip-path="url(#fdab4524c7)"><path fill="#eae586" d="M 98.234375 409.625 L 146.15625 409.625 L 146.15625 457.546875 L 98.234375 457.546875 Z M 98.234375 409.625 " fill-opacity="1" fill-rule="nonzero"/></g></g><g clip-path="url(#64dd6d15f3)"><g clip-path="url(#b6734a891e)"><path stroke-linecap="butt" transform="matrix(0.751284, 0, 0, 0.751284, 98.235995, 409.625303)" fill="none" stroke-linejoin="miter" d="M 31.943157 -0.000403832 C 14.301483 -0.000403832 -0.00215572 14.303235 -0.00215572 31.944908 C -0.00215572 49.586582 14.301483 63.890221 31.943157 63.890221 C 49.59003 63.890221 63.888469 49.586582 63.888469 31.944908 C 63.888469 14.303235 49.59003 -0.000403832 31.943157 -0.000403832 " stroke="#eae586" stroke-width="6" stroke-opacity="1" stroke-miterlimit="4"/></g></g><g clip-path="url(#45e5b3e48d)"><g clip-path="url(#09a08b0982)"><path fill="#5ce1e6" d="M 55.867188 363.398438 L 193.234375 363.398438 L 193.234375 500.769531 L 55.867188 500.769531 Z M 55.867188 363.398438 " fill-opacity="1" fill-rule="nonzero"/></g></g><g clip-path="url(#8910286dcf)"><g clip-path="url(#2eb9ebe1ac)"><path stroke-linecap="butt" transform="matrix(0.74936, 0, 0, 0.74936, 55.865461, 363.400139)" fill="none" stroke-linejoin="miter" d="M 91.580436 -0.00227103 C 41.000825 -0.00227103 0.00230438 41.001462 0.00230438 91.575861 C 0.00230438 142.155472 41.000825 183.153992 91.580436 183.153992 C 142.154835 183.153992 183.158568 142.155472 183.158568 91.575861 C 183.158568 41.001462 142.154835 -0.00227103 91.580436 -0.00227103 " stroke="#eae586" stroke-width="6" stroke-opacity="1" stroke-miterlimit="4"/></g></g><g clip-path="url(#ae5dd73bf1)"><g clip-path="url(#eaa94d676f)"><path fill="#ffffff" d="M 100.589844 408.125 L 148.511719 408.125 L 148.511719 456.046875 L 100.589844 456.046875 Z M 100.589844 408.125 " fill-opacity="1" fill-rule="nonzero"/></g></g><g clip-path="url(#1def7014dc)"><g clip-path="url(#1e55ab8d23)"><path stroke-linecap="butt" transform="matrix(0.751284, 0, 0, 0.751284, 100.590637, 408.125303)" fill="none" stroke-linejoin="miter" d="M 31.944257 -0.000403932 C 14.302583 -0.000403932 -0.00105565 14.303234 -0.00105565 31.944908 C -0.00105565 49.586582 14.302583 63.890221 31.944257 63.890221 C 49.585931 63.890221 63.889569 49.586582 63.889569 31.944908 C 63.889569 14.303234 49.585931 -0.000403932 31.944257 -0.000403932 " stroke="#eae586" stroke-width="6" stroke-opacity="1" stroke-miterlimit="4"/></g></g><path stroke-linecap="butt" transform="matrix(0.256706, 0.703589, -0.70457, 0.257063, 146.04458, 250.591824)" fill="none" stroke-linejoin="miter" d="M -0.000451383 33.499966 L 314.436802 33.498731 " stroke="#5ce1e6" stroke-width="67" stroke-opacity="1" stroke-miterlimit="4"/><path stroke-linecap="butt" transform="matrix(0.750309, 0, 0, 0.750556, 484.201731, 264.779361)" fill="none" stroke-linejoin="miter" d="M 27.500963 0.0025167 L 27.500963 134.876524 C 27.500963 147.731581 32.608237 160.060986 41.698248 169.153206 C 50.788259 178.240222 63.116521 183.351018 75.975815 183.351018 C 88.829902 183.351018 101.158165 178.240222 110.253382 169.153206 C 119.343393 160.060986 124.450667 147.731581 124.450667 134.876524 L 124.450667 2.001036 " stroke="#5ce1e6" stroke-width="55" stroke-opacity="1" stroke-miterlimit="4"/><path stroke-linecap="butt" transform="matrix(0.750309, 0, 0, 0.750556, 496.201731, 276.77936)" fill="none" stroke-linejoin="miter" d="M 27.500964 0.0025175 L 27.500964 134.876525 C 27.500964 147.731582 32.608238 160.060986 41.698249 169.153207 C 50.78826 178.240223 63.116522 183.351018 75.975816 183.351018 C 88.829903 183.351018 101.158165 178.240223 110.253382 169.153207 C 119.343393 160.060986 124.450668 147.731582 124.450668 134.876525 L 124.450668 2.001036 " stroke="#eae586" stroke-width="55" stroke-opacity="1" stroke-miterlimit="4"/><path stroke-linecap="butt" transform="matrix(0.750309, 0, 0, 0.750677, 399.431203, 333.836898)" fill="none" stroke-linejoin="miter" d="M 27.502291 205.823425 L 27.502291 75.971838 C 27.502291 63.118852 32.609565 50.78623 41.699576 41.695474 C 50.789587 32.604718 63.117849 27.499949 75.971937 27.499949 C 88.83123 27.499949 101.159493 32.604718 110.249504 41.695474 C 119.339514 50.78623 124.446789 63.118852 124.446789 75.971838 L 124.446789 207.826826 " stroke="#eae586" stroke-width="55" stroke-opacity="1" stroke-miterlimit="4"/><path stroke-linecap="butt" transform="matrix(0.750309, 0, 0, 0.750677, 411.431215, 324.190698)" fill="none" stroke-linejoin="miter" d="M 27.502276 205.825647 L 27.502276 75.974061 C 27.502276 63.115871 32.60955 50.788452 41.699561 41.697696 C 50.789572 32.60694 63.117834 27.502171 75.971922 27.502171 C 88.831215 27.502171 101.159477 32.60694 110.249488 41.697696 C 119.339499 50.788452 124.446773 63.115871 124.446773 75.974061 L 124.446773 207.823844 " stroke="#5ce1e6" stroke-width="55" stroke-opacity="1" stroke-miterlimit="4"/><g clip-path="url(#ca4646cef8)"><g clip-path="url(#913d7027ca)"><path fill="#eae586" d="M 306.4375 320.710938 L 443.804688 320.710938 L 443.804688 458.082031 L 306.4375 458.082031 Z M 306.4375 320.710938 " fill-opacity="1" fill-rule="nonzero"/></g></g><g clip-path="url(#71038eacc3)"><g clip-path="url(#c453c84c94)"><path fill="#ff66c4" d="M 314.5625 308.605469 L 451.929688 308.605469 L 451.929688 445.972656 L 314.5625 445.972656 Z M 314.5625 308.605469 " fill-opacity="1" fill-rule="nonzero"/><path stroke-linecap="butt" transform="matrix(0.423982, 0, 0, 0.423982, 314.561004, 308.603764)" fill="none" stroke-linejoin="miter" d="M 161.999992 0.00401969 C 72.530183 0.00401969 0.00352922 72.530674 0.00352922 162.000482 C 0.00352922 251.470291 72.530183 323.996945 161.999992 323.996945 C 251.469801 323.996945 323.996455 251.470291 323.996455 162.000482 C 323.996455 72.530674 251.469801 0.00401969 161.999992 0.00401969 " stroke="#eae586" stroke-width="14.151542" stroke-opacity="1" stroke-miterlimit="4"/></g></g><g clip-path="url(#00e0c51cc9)"><g clip-path="url(#0cea3cc9fb)"><path fill="#ffffff" d="M 359.285156 353.328125 L 407.207031 353.328125 L 407.207031 401.25 L 359.285156 401.25 Z M 359.285156 353.328125 " fill-opacity="1" fill-rule="nonzero"/></g></g><g clip-path="url(#8ef1f77d6e)"><g clip-path="url(#446a05312e)"><path stroke-linecap="butt" transform="matrix(0.423923, 0, 0, 0.423923, 359.286168, 353.328957)" fill="none" stroke-linejoin="miter" d="M 56.510255 -0.00196362 C 25.300681 -0.00196362 -0.00238622 25.301104 -0.00238622 56.510678 C -0.00238622 87.720252 25.300681 113.014105 56.510255 113.014105 C 87.719829 113.014105 113.013682 87.720252 113.013682 56.510678 C 113.013682 25.301104 87.719829 -0.00196362 56.510255 -0.00196362 " stroke="#eae586" stroke-width="14.151542" stroke-opacity="1" stroke-miterlimit="4"/></g></g><g clip-path="url(#47ccca9536)"><g clip-path="url(#7384e9ae46)"><path fill="#eae586" d="M 231.71875 314.65625 L 369.085938 314.65625 L 369.085938 452.027344 L 231.71875 452.027344 Z M 231.71875 314.65625 " fill-opacity="1" fill-rule="nonzero"/></g></g><g clip-path="url(#78d971af50)"><g clip-path="url(#63d088869d)"><path fill="#a3701a" d="M 173.128906 308.605469 L 310.5 308.605469 L 310.5 445.972656 L 173.128906 445.972656 Z M 173.128906 308.605469 " fill-opacity="1" fill-rule="nonzero"/></g></g><g clip-path="url(#e6015ad0cf)"><g clip-path="url(#e47be4fe8d)"><path stroke-linecap="butt" transform="matrix(0.74936, 0, 0, 0.74936, 173.128471, 308.603764)" fill="none" stroke-linejoin="miter" d="M 91.578713 0.00227431 C 40.999101 0.00227431 0.000581109 41.000795 0.000581109 91.580406 C 0.000581109 142.154805 40.999101 183.158538 91.578713 183.158538 C 142.153111 183.158538 183.156845 142.154805 183.156845 91.580406 C 183.156845 41.000795 142.153111 0.00227431 91.578713 0.00227431 " stroke="#eae586" stroke-width="6" stroke-opacity="1" stroke-miterlimit="4"/></g></g><g clip-path="url(#07ac91bb55)"><g clip-path="url(#dc68b657bb)"><path fill="#ffffff" d="M 217.855469 353.328125 L 265.773438 353.328125 L 265.773438 401.25 L 217.855469 401.25 Z M 217.855469 353.328125 " fill-opacity="1" fill-rule="nonzero"/></g></g><g clip-path="url(#7432b39bb1)"><g clip-path="url(#e18ab85760)"><path stroke-linecap="butt" transform="matrix(0.751284, 0, 0, 0.751284, 217.853635, 353.328957)" fill="none" stroke-linejoin="miter" d="M 31.947753 -0.001108 C 14.30088 -0.001108 0.0024409 14.30253 0.0024409 31.944204 C 0.0024409 49.585878 14.30088 63.889517 31.947753 63.889517 C 49.589427 63.889517 63.893065 49.585878 63.893065 31.944204 C 63.893065 14.30253 49.589427 -0.001108 31.947753 -0.001108 " stroke="#eae586" stroke-width="6" stroke-opacity="1" stroke-miterlimit="4"/></g></g><g clip-path="url(#ef45ff8224)"><g clip-path="url(#80c2322c94)"><path fill="#5ce1e6" d="M 237.75 303.574219 L 375.121094 303.574219 L 375.121094 440.945312 L 237.75 440.945312 Z M 237.75 303.574219 " fill-opacity="1" fill-rule="nonzero"/></g></g><g clip-path="url(#b6226d45e8)"><g clip-path="url(#f7d0fa2257)"><path stroke-linecap="butt" transform="matrix(0.547824, 0, 0, 0.547824, 237.751223, 303.575131)" fill="none" stroke-linejoin="miter" d="M 125.187717 -0.00166546 C 56.050521 -0.00166546 -0.00223199 56.051088 -0.00223199 125.188284 C -0.00223199 194.32548 56.050521 250.378233 125.187717 250.378233 C 194.324913 250.378233 250.377666 194.32548 250.377666 125.188284 C 250.377666 56.051088 194.324913 -0.00166546 125.187717 -0.00166546 " stroke="#eae586" stroke-width="10.936023" stroke-opacity="1" stroke-miterlimit="4"/></g></g><g clip-path="url(#ceb4845915)"><g clip-path="url(#f00b3497c7)"><path fill="#ffffff" d="M 282.476562 347.273438 L 330.394531 347.273438 L 330.394531 395.195312 L 282.476562 395.195312 Z M 282.476562 347.273438 " fill-opacity="1" fill-rule="nonzero"/></g></g><g clip-path="url(#55ef2b6a60)"><g clip-path="url(#6684176eab)"><path stroke-linecap="butt" transform="matrix(0.546584, 0, 0, 0.546584, 282.476416, 347.274876)" fill="none" stroke-linejoin="miter" d="M 43.666358 -0.00263204 C 19.546382 -0.00263204 0.000268597 19.550628 0.000268597 43.663458 C 0.000268597 67.776287 19.546382 87.329547 43.666358 87.329547 C 67.779187 87.329547 87.325301 67.776287 87.325301 43.663458 C 87.325301 19.550628 67.779187 -0.00263204 43.666358 -0.00263204 " stroke="#eae586" stroke-width="10.936023" stroke-opacity="1" stroke-miterlimit="4"/></g></g><path stroke-linecap="butt" transform="matrix(0.749358, 0, 0, 0.751193, 649.913347, 305.071557)" fill="none" stroke-linejoin="miter" d="M 27.498436 218.109782 L 73.063456 218.109782 C 85.146709 218.109782 96.73996 213.310124 105.283727 204.76642 C 113.827494 196.222717 118.628476 184.631777 118.628476 172.54683 L 118.628476 171.527618 C 118.628476 159.442672 113.827494 147.856932 105.283727 139.308028 C 96.73996 130.764325 85.146709 125.964667 73.063456 125.964667 C 60.980203 125.964667 49.392165 121.165009 40.843185 112.621305 C 32.299418 104.072402 27.498436 92.486662 27.498436 80.401716 L 27.498436 73.064427 C 27.498436 60.979481 32.299418 49.38854 40.843185 40.844837 C 49.392165 32.301134 60.980203 27.501475 73.063456 27.501475 L 118.628476 27.501475 " stroke="#eae586" stroke-width="55" stroke-opacity="1" stroke-miterlimit="4"/><path stroke-linecap="butt" transform="matrix(0.749358, 0, 0, 0.751193, 659.366802, 295.297769)" fill="none" stroke-linejoin="miter" d="M 27.497995 218.110249 L 73.063015 218.110249 C 85.146268 218.110249 96.739519 213.310591 105.283286 204.766887 C 113.827053 196.223184 118.628035 184.632244 118.628035 172.547297 L 118.628035 171.528085 C 118.628035 159.443139 113.827053 147.857399 105.283286 139.308495 C 96.739519 130.764792 85.146268 125.965134 73.063015 125.965134 C 60.979762 125.965134 49.391724 121.165476 40.847957 112.621772 C 32.298977 104.072869 27.497995 92.487129 27.497995 80.402183 L 27.497995 73.064894 C 27.497995 60.979948 32.298977 49.389007 40.847957 40.845304 C 49.391724 32.301601 60.979762 27.501942 73.063015 27.501942 L 118.628035 27.501942 " stroke="#5ce1e6" stroke-width="55" stroke-opacity="1" stroke-miterlimit="4"/><path stroke-linecap="butt" transform="matrix(0.682451, 0.304651, -0.305952, 0.685366, 606.104037, 361.056652)" fill="none" stroke-linejoin="miter" d="M 27.499055 -0.000979958 L 27.497987 134.872602 C 27.498437 147.730487 32.60859 160.061117 41.698388 169.152289 C 50.788185 178.243462 63.11608 183.347595 75.972645 183.349352 L 124.448773 183.35115 " stroke="#eae586" stroke-width="55" stroke-opacity="1" stroke-miterlimit="4"/><path stroke-linecap="butt" transform="matrix(0.686151, 0.306302, -0.305726, 0.684859, 567.840095, 370.876936)" fill="none" stroke-linejoin="miter" d="M 0.00137332 27.499944 L 165.701335 27.499357 " stroke="#eae586" stroke-width="55" stroke-opacity="1" stroke-miterlimit="4"/><path stroke-linecap="butt" transform="matrix(0.682451, 0.304651, -0.305952, 0.685366, 618.104036, 356.028019)" fill="none" stroke-linejoin="miter" d="M 27.499759 0.00058867 L 27.498691 134.874171 C 27.499141 147.732056 32.607164 160.057933 41.696961 169.149106 C 50.786759 178.240278 63.116784 183.349164 75.973349 183.350921 L 124.447347 183.347967 " stroke="#5ce1e6" stroke-width="55" stroke-opacity="1" stroke-miterlimit="4"/><path stroke-linecap="butt" transform="matrix(0.686151, 0.306302, -0.305726, 0.684859, 579.840094, 365.848331)" fill="none" stroke-linejoin="miter" d="M 0.00205802 27.501479 L 165.70202 27.500892 " stroke="#5ce1e6" stroke-width="55" stroke-opacity="1" stroke-miterlimit="4"/><g clip-path="url(#8e56a958ad)"><g clip-path="url(#be36d5f123)"><path fill="#ffffff" d="M 291.523438 310.125 L 300.226562 310.125 L 300.226562 318.675781 L 291.523438 318.675781 Z M 291.523438 310.125 " fill-opacity="1" fill-rule="nonzero"/></g></g><g clip-path="url(#2d192adc5d)"><g clip-path="url(#d89ddff3c9)"><path fill="#ffffff" d="M 279.824219 314.476562 L 288.523438 314.476562 L 288.523438 323.023438 L 279.824219 323.023438 Z M 279.824219 314.476562 " fill-opacity="1" fill-rule="nonzero"/></g></g><g clip-path="url(#33c4d5180f)"><g clip-path="url(#806e51a989)"><path fill="#ffffff" d="M 271.125 324.300781 L 280.574219 324.300781 L 280.574219 333.375 L 271.125 333.375 Z M 271.125 324.300781 " fill-opacity="1" fill-rule="nonzero"/></g></g><g clip-path="url(#2f9fcaca2f)"><g clip-path="url(#63b0917efc)"><path fill="#ffffff" d="M 256.425781 328.351562 L 265.125 328.351562 L 265.125 336.898438 L 256.425781 336.898438 Z M 256.425781 328.351562 " fill-opacity="1" fill-rule="nonzero"/></g></g><g clip-path="url(#aee4f26719)"><g clip-path="url(#8fad80418f)"><path fill="#ffffff" d="M 301.574219 325.875 L 310.875 325.875 L 310.875 335.175781 L 301.574219 335.175781 Z M 301.574219 325.875 " fill-opacity="1" fill-rule="nonzero"/></g></g><g clip-path="url(#bd016d04b7)"><g clip-path="url(#8e58e7cf91)"><path fill="#ffffff" d="M 328.050781 319.574219 L 336.75 319.574219 L 336.75 328.125 L 328.050781 328.125 Z M 328.050781 319.574219 " fill-opacity="1" fill-rule="nonzero"/></g></g><g clip-path="url(#efc6c1a919)"><g clip-path="url(#df7557fad1)"><path fill="#ffffff" d="M 318.523438 313.726562 L 327.226562 313.726562 L 327.226562 322.273438 L 318.523438 322.273438 Z M 318.523438 313.726562 " fill-opacity="1" fill-rule="nonzero"/></g></g><g clip-path="url(#165b68c925)"><g clip-path="url(#0d403b7526)"><path fill="#ffffff" d="M 307.574219 314.476562 L 316.273438 314.476562 L 316.273438 323.023438 L 307.574219 323.023438 Z M 307.574219 314.476562 " fill-opacity="1" fill-rule="nonzero"/></g></g><g clip-path="url(#416afe71a6)"><g clip-path="url(#6d6d1a9b46)"><path fill="#ffffff" d="M 292.351562 316.351562 L 301.726562 316.351562 L 301.726562 326.101562 L 292.351562 326.101562 Z M 292.351562 316.351562 " fill-opacity="1" fill-rule="nonzero"/></g></g><g clip-path="url(#b0f6a17c51)"><g clip-path="url(#96cd210bf5)"><path fill="#ffffff" d="M 286.351562 331.273438 L 295.125 331.273438 L 295.125 339.824219 L 286.351562 339.824219 Z M 286.351562 331.273438 " fill-opacity="1" fill-rule="nonzero"/></g></g><g clip-path="url(#a5fb2b7900)"><g clip-path="url(#76997e1405)"><path fill="#ffffff" d="M 328.050781 335.699219 L 336.75 335.699219 L 336.75 344.25 L 328.050781 344.25 Z M 328.050781 335.699219 " fill-opacity="1" fill-rule="nonzero"/></g></g><g clip-path="url(#ea5c8312bb)"><g clip-path="url(#a276e5cbf8)"><path fill="#ffffff" d="M 346.273438 329.851562 L 354.976562 329.851562 L 354.976562 338.398438 L 346.273438 338.398438 Z M 346.273438 329.851562 " fill-opacity="1" fill-rule="nonzero"/></g></g><g clip-path="url(#62d5fbf238)"><g clip-path="url(#ccfb960c9c)"><path fill="#ffffff" d="M 340.425781 326.925781 L 349.125 326.925781 L 349.125 335.476562 L 340.425781 335.476562 Z M 340.425781 326.925781 " fill-opacity="1" fill-rule="nonzero"/></g></g><g clip-path="url(#23367ec1f9)"><g clip-path="url(#0fc1070d84)"><path fill="#ffffff" d="M 319.273438 329.101562 L 327.976562 329.101562 L 327.976562 337.648438 L 319.273438 337.648438 Z M 319.273438 329.101562 " fill-opacity="1" fill-rule="nonzero"/></g></g><g clip-path="url(#e99e4ee222)"><g clip-path="url(#52c84c4c7e)"><path fill="#ffffff" d="M 309 326.175781 L 317.773438 326.175781 L 317.773438 334.726562 L 309 334.726562 Z M 309 326.175781 " fill-opacity="1" fill-rule="nonzero"/></g></g><g clip-path="url(#827000951b)"><g clip-path="url(#1aa9fdc0b1)"><path fill="#ffffff" d="M 411.300781 328.351562 L 420 328.351562 L 420 336.898438 L 411.300781 336.898438 Z M 411.300781 328.351562 " fill-opacity="1" fill-rule="nonzero"/></g></g><g clip-path="url(#90298c1440)"><g clip-path="url(#da0cfbaf9c)"><path fill="#ffffff" d="M 403.273438 321.824219 L 411.976562 321.824219 L 411.976562 330.375 L 403.273438 330.375 Z M 403.273438 321.824219 " fill-opacity="1" fill-rule="nonzero"/></g></g><g clip-path="url(#baaed428d8)"><g clip-path="url(#3f47c61fce)"><path fill="#ffffff" d="M 387.226562 318.898438 L 395.925781 318.898438 L 395.925781 327.449219 L 387.226562 327.449219 Z M 387.226562 318.898438 " fill-opacity="1" fill-rule="nonzero"/></g></g><g clip-path="url(#3b7f980f9a)"><g clip-path="url(#1655b1f126)"><path fill="#ffffff" d="M 385.875 330.898438 L 395.324219 330.898438 L 395.324219 339.976562 L 385.875 339.976562 Z M 385.875 330.898438 " fill-opacity="1" fill-rule="nonzero"/></g></g><g clip-path="url(#0332b53c21)"><g clip-path="url(#a4e8a50646)"><path fill="#ffffff" d="M 373.351562 331.273438 L 382.050781 331.273438 L 382.050781 339.824219 L 373.351562 339.824219 Z M 373.351562 331.273438 " fill-opacity="1" fill-rule="nonzero"/></g></g><g clip-path="url(#89da60c7ce)"><g clip-path="url(#1f29756404)"><path fill="#ffffff" d="M 364.574219 320.324219 L 373.273438 320.324219 L 373.273438 328.875 L 364.574219 328.875 Z M 364.574219 320.324219 " fill-opacity="1" fill-rule="nonzero"/></g></g><g clip-path="url(#79c50608c7)"><g clip-path="url(#e45aa96c3b)"><path fill="#ffffff" d="M 379.875 318.898438 L 388.648438 318.898438 L 388.648438 327.449219 L 379.875 327.449219 Z M 379.875 318.898438 " fill-opacity="1" fill-rule="nonzero"/></g></g><g clip-path="url(#bf7d63720f)"><g clip-path="url(#db6df1e4f5)"><path fill="#ffffff" d="M 379.199219 326.925781 L 387.898438 326.925781 L 387.898438 335.476562 L 379.199219 335.476562 Z M 379.199219 326.925781 " fill-opacity="1" fill-rule="nonzero"/></g></g><g clip-path="url(#630e1e48f7)"><g clip-path="url(#608c48167a)"><path fill="#ffffff" d="M 398.925781 326.925781 L 407.625 326.925781 L 407.625 335.476562 L 398.925781 335.476562 Z M 398.925781 326.925781 " fill-opacity="1" fill-rule="nonzero"/></g></g><g clip-path="url(#7a68d72260)"><g clip-path="url(#22281b883e)"><path fill="#ffffff" d="M 406.949219 338.625 L 415.648438 338.625 L 415.648438 347.175781 L 406.949219 347.175781 Z M 406.949219 338.625 " fill-opacity="1" fill-rule="nonzero"/></g></g><g clip-path="url(#e44dfd53c7)"><g clip-path="url(#dd6f000175)"><path fill="#ffffff" d="M 393.074219 318.898438 L 401.773438 318.898438 L 401.773438 327.449219 L 393.074219 327.449219 Z M 393.074219 318.898438 " fill-opacity="1" fill-rule="nonzero"/></g></g><g clip-path="url(#c62f6e0a6b)"><g clip-path="url(#9908b1051a)"><path fill="#ffffff" d="M 370.425781 313.050781 L 379.125 313.050781 L 379.125 321.601562 L 370.425781 321.601562 Z M 370.425781 313.050781 " fill-opacity="1" fill-rule="nonzero"/></g></g><g clip-path="url(#fd875f85bf)"><g clip-path="url(#b3f8b71742)"><path fill="#ffffff" d="M 372.300781 320.699219 L 381.375 320.699219 L 381.375 330.148438 L 372.300781 330.148438 Z M 372.300781 320.699219 " fill-opacity="1" fill-rule="nonzero"/></g></g><g clip-path="url(#986085f6bd)"><g clip-path="url(#3473955188)"><path fill="#ffffff" d="M 366 326.925781 L 374.699219 326.925781 L 374.699219 335.476562 L 366 335.476562 Z M 366 326.925781 " fill-opacity="1" fill-rule="nonzero"/></g></g><g clip-path="url(#6b35f5d6f1)"><g clip-path="url(#5bb09392c7)"><path fill="#ffffff" d="M 394.949219 337.5 L 404.023438 337.5 L 404.023438 346.949219 L 394.949219 346.949219 Z M 394.949219 337.5 " fill-opacity="1" fill-rule="nonzero"/></g></g><g clip-path="url(#1166afb49f)"><g clip-path="url(#da792922c6)"><path fill="#ffffff" d="M 409.875 348.074219 L 418.574219 348.074219 L 418.574219 356.625 L 409.875 356.625 Z M 409.875 348.074219 " fill-opacity="1" fill-rule="nonzero"/></g></g><g clip-path="url(#a3f74e53c5)"><g clip-path="url(#0d315455e4)"><path fill="#ffffff" d="M 416.925781 342.675781 L 426.375 342.675781 L 426.375 351.75 L 416.925781 351.75 Z M 416.925781 342.675781 " fill-opacity="1" fill-rule="nonzero"/></g></g><g clip-path="url(#86e9332f5f)"><g clip-path="url(#95adb0b845)"><path fill="#ffffff" d="M 426.675781 334.199219 L 435.375 334.199219 L 435.375 342.75 L 426.675781 342.75 Z M 426.675781 334.199219 " fill-opacity="1" fill-rule="nonzero"/></g></g><g clip-path="url(#8beace3a5b)"><g clip-path="url(#219c0c6bd5)"><path fill="#ffffff" d="M 416.398438 326.175781 L 425.175781 326.175781 L 425.175781 334.726562 L 416.398438 334.726562 Z M 416.398438 326.175781 " fill-opacity="1" fill-rule="nonzero"/></g></g><g clip-path="url(#927c83d3be)"><g clip-path="url(#e4eb006557)"><path fill="#ffffff" d="M 414.976562 336.375 L 423.675781 336.375 L 423.675781 344.925781 L 414.976562 344.925781 Z M 414.976562 336.375 " fill-opacity="1" fill-rule="nonzero"/></g></g><g clip-path="url(#83e66d3eb5)"><g clip-path="url(#7a8d5bc135)"><path fill="#ffffff" d="M 402.523438 332.773438 L 411.300781 332.773438 L 411.300781 341.324219 L 402.523438 341.324219 Z M 402.523438 332.773438 " fill-opacity="1" fill-rule="nonzero"/></g></g><g clip-path="url(#ad66e676bd)"><g clip-path="url(#6a4481f03e)"><path fill="#ffffff" d="M 390.824219 314.476562 L 399.601562 314.476562 L 399.601562 323.023438 L 390.824219 323.023438 Z M 390.824219 314.476562 " fill-opacity="1" fill-rule="nonzero"/></g></g><g clip-path="url(#0b1f30be43)"><g clip-path="url(#312f169b7e)"><path fill="#ffffff" d="M 355.800781 318.148438 L 364.5 318.148438 L 364.5 326.699219 L 355.800781 326.699219 Z M 355.800781 318.148438 " fill-opacity="1" fill-rule="nonzero"/></g></g><g clip-path="url(#ae16fde864)"><g clip-path="url(#04865d2959)"><path fill="#ffffff" d="M 357.226562 323.25 L 366 323.25 L 366 331.800781 L 357.226562 331.800781 Z M 357.226562 323.25 " fill-opacity="1" fill-rule="nonzero"/></g></g><g clip-path="url(#19b294eda7)"><g clip-path="url(#e2e658d7d5)"><path fill="#ffffff" d="M 371.851562 340.800781 L 380.550781 340.800781 L 380.550781 349.351562 L 371.851562 349.351562 Z M 371.851562 340.800781 " fill-opacity="1" fill-rule="nonzero"/></g></g><g clip-path="url(#e6f0c6ebf3)"><g clip-path="url(#f5dbe7b1b3)"><path fill="#ffffff" d="M 426.675781 351.75 L 435.375 351.75 L 435.375 360.300781 L 426.675781 360.300781 Z M 426.675781 351.75 " fill-opacity="1" fill-rule="nonzero"/></g></g><g clip-path="url(#d4e1ce65cc)"><g clip-path="url(#e95b7fef8b)"><path fill="#ffffff" d="M 433.949219 364.199219 L 442.648438 364.199219 L 442.648438 372.75 L 433.949219 372.75 Z M 433.949219 364.199219 " fill-opacity="1" fill-rule="nonzero"/></g></g><g clip-path="url(#720b4b7880)"><g clip-path="url(#de17599087)"><path fill="#ffffff" d="M 414.226562 364.199219 L 422.925781 364.199219 L 422.925781 372.75 L 414.226562 372.75 Z M 414.226562 364.199219 " fill-opacity="1" fill-rule="nonzero"/></g></g><g clip-path="url(#bf98d49bde)"><g clip-path="url(#0af4032e90)"><path fill="#ffffff" d="M 420.824219 365.625 L 429.523438 365.625 L 429.523438 374.175781 L 420.824219 374.175781 Z M 420.824219 365.625 " fill-opacity="1" fill-rule="nonzero"/></g></g><g clip-path="url(#26a094ed20)"><g clip-path="url(#51e6d09e0d)"><path fill="#ffffff" d="M 210.375 322.5 L 219.074219 322.5 L 219.074219 331.050781 L 210.375 331.050781 Z M 210.375 322.5 " fill-opacity="1" fill-rule="nonzero"/></g></g><g clip-path="url(#ac6f027f3c)"><g clip-path="url(#f57bd3dae6)"><path fill="#ffffff" d="M 225.75 320.324219 L 234.449219 320.324219 L 234.449219 328.875 L 225.75 328.875 Z M 225.75 320.324219 " fill-opacity="1" fill-rule="nonzero"/></g></g><g clip-path="url(#50094fd5ad)"><g clip-path="url(#898b347cb0)"><path fill="#ffffff" d="M 238.875 325.425781 L 247.574219 325.425781 L 247.574219 333.976562 L 238.875 333.976562 Z M 238.875 325.425781 " fill-opacity="1" fill-rule="nonzero"/></g></g><g clip-path="url(#74471f37a4)"><g clip-path="url(#bd9bdc0b5d)"><path fill="#ffffff" d="M 242.324219 319.574219 L 251.398438 319.574219 L 251.398438 329.023438 L 242.324219 329.023438 Z M 242.324219 319.574219 " fill-opacity="1" fill-rule="nonzero"/></g></g><g clip-path="url(#32172f0ab4)"><g clip-path="url(#64c1ec2791)"><path fill="#ffffff" d="M 235.199219 314.476562 L 243.976562 314.476562 L 243.976562 323.023438 L 235.199219 323.023438 Z M 235.199219 314.476562 " fill-opacity="1" fill-rule="nonzero"/></g></g><g clip-path="url(#8bca8f4d7f)"><g clip-path="url(#3124cb7258)"><path fill="#ffffff" d="M 222.148438 331.050781 L 231.601562 331.050781 L 231.601562 340.351562 L 222.148438 340.351562 Z M 222.148438 331.050781 " fill-opacity="1" fill-rule="nonzero"/></g></g><g clip-path="url(#4e4b51d219)"><g clip-path="url(#75878989ef)"><path fill="#ffffff" d="M 213.824219 330.523438 L 222.898438 330.523438 L 222.898438 340.050781 L 213.824219 340.050781 Z M 213.824219 330.523438 " fill-opacity="1" fill-rule="nonzero"/></g></g><g clip-path="url(#193ae53189)"><g clip-path="url(#d2c045a807)"><path fill="#ffffff" d="M 201.601562 341.550781 L 210.300781 341.550781 L 210.300781 350.101562 L 201.601562 350.101562 Z M 201.601562 341.550781 " fill-opacity="1" fill-rule="nonzero"/></g></g><g clip-path="url(#9ecc90f031)"><g clip-path="url(#8db99bcd42)"><path fill="#ffffff" d="M 216.976562 341.550781 L 225.675781 341.550781 L 225.675781 350.101562 L 216.976562 350.101562 Z M 216.976562 341.550781 " fill-opacity="1" fill-rule="nonzero"/></g></g><g clip-path="url(#3cf9e10d40)"><g clip-path="url(#800d1b0837)"><path fill="#ffffff" d="M 228.675781 341.550781 L 237.375 341.550781 L 237.375 350.101562 L 228.675781 350.101562 Z M 228.675781 341.550781 " fill-opacity="1" fill-rule="nonzero"/></g></g><g clip-path="url(#629e7df948)"><g clip-path="url(#014581373d)"><path fill="#ffffff" d="M 216.226562 348.074219 L 224.925781 348.074219 L 224.925781 356.625 L 216.226562 356.625 Z M 216.226562 348.074219 " fill-opacity="1" fill-rule="nonzero"/></g></g><g clip-path="url(#f25e059dc5)"><g clip-path="url(#19bc862494)"><path fill="#ffffff" d="M 195.75 329.101562 L 204.523438 329.101562 L 204.523438 337.648438 L 195.75 337.648438 Z M 195.75 329.101562 " fill-opacity="1" fill-rule="nonzero"/></g></g><g clip-path="url(#0f991ac5aa)"><g clip-path="url(#1312b81a4c)"><path fill="#ffffff" d="M 189.300781 343.351562 L 198.75 343.351562 L 198.75 352.425781 L 189.300781 352.425781 Z M 189.300781 343.351562 " fill-opacity="1" fill-rule="nonzero"/></g></g><g clip-path="url(#aa6a0b30c0)"><g clip-path="url(#0f1e7ab9a7)"><path fill="#ffffff" d="M 178.949219 346.648438 L 187.648438 346.648438 L 187.648438 355.199219 L 178.949219 355.199219 Z M 178.949219 346.648438 " fill-opacity="1" fill-rule="nonzero"/></g></g><g clip-path="url(#bf8412e61e)"><g clip-path="url(#0e16d44c6e)"><path fill="#ffffff" d="M 189.226562 352.5 L 197.925781 352.5 L 197.925781 361.050781 L 189.226562 361.050781 Z M 189.226562 352.5 " fill-opacity="1" fill-rule="nonzero"/></g></g><g clip-path="url(#da48bb9692)"><g clip-path="url(#607896cb42)"><path fill="#ffffff" d="M 208.199219 352.5 L 216.898438 352.5 L 216.898438 361.050781 L 208.199219 361.050781 Z M 208.199219 352.5 " fill-opacity="1" fill-rule="nonzero"/></g></g><g clip-path="url(#466053534a)"><g clip-path="url(#50a061ff74)"><path fill="#ffffff" d="M 197.25 365.625 L 205.949219 365.625 L 205.949219 374.175781 L 197.25 374.175781 Z M 197.25 365.625 " fill-opacity="1" fill-rule="nonzero"/></g></g><g clip-path="url(#0de7f9518a)"><g clip-path="url(#bbdd9d7cad)"><path fill="#ffffff" d="M 189.226562 369.976562 L 197.925781 369.976562 L 197.925781 378.523438 L 189.226562 378.523438 Z M 189.226562 369.976562 " fill-opacity="1" fill-rule="nonzero"/></g></g><g clip-path="url(#6fde1913ba)"><g clip-path="url(#38da921139)"><path fill="#ffffff" d="M 201.601562 371.476562 L 210.300781 371.476562 L 210.300781 380.023438 L 201.601562 380.023438 Z M 201.601562 371.476562 " fill-opacity="1" fill-rule="nonzero"/></g></g><g clip-path="url(#ddd9987023)"><g clip-path="url(#36e7b8c81b)"><path fill="#ffffff" d="M 338.25 356.101562 L 346.949219 356.101562 L 346.949219 364.648438 L 338.25 364.648438 Z M 338.25 356.101562 " fill-opacity="1" fill-rule="nonzero"/></g></g><g clip-path="url(#b80c76b39e)"><g clip-path="url(#da3208a40c)"><path fill="#ffffff" d="M 347.023438 345.898438 L 355.726562 345.898438 L 355.726562 354.449219 L 347.023438 354.449219 Z M 347.023438 345.898438 " fill-opacity="1" fill-rule="nonzero"/></g></g><g clip-path="url(#e2331f6a2d)"><g clip-path="url(#dbbaf87199)"><path fill="#ffffff" d="M 341.175781 344.476562 L 349.875 344.476562 L 349.875 353.023438 L 341.175781 353.023438 Z M 341.175781 344.476562 " fill-opacity="1" fill-rule="nonzero"/></g></g><g clip-path="url(#99521b44bc)"><g clip-path="url(#f90459869e)"><path fill="#ffffff" d="M 279.824219 341.550781 L 288.523438 341.550781 L 288.523438 350.101562 L 279.824219 350.101562 Z M 279.824219 341.550781 " fill-opacity="1" fill-rule="nonzero"/></g></g><g clip-path="url(#6dd545c0be)"><g clip-path="url(#170cc20bb5)"><path fill="#ffffff" d="M 265.199219 345.148438 L 273.898438 345.148438 L 273.898438 353.699219 L 265.199219 353.699219 Z M 265.199219 345.148438 " fill-opacity="1" fill-rule="nonzero"/></g></g><g clip-path="url(#504e782b34)"><g clip-path="url(#d3e09225fe)"><path fill="#ffffff" d="M 260.101562 368.550781 L 268.800781 368.550781 L 268.800781 377.101562 L 260.101562 377.101562 Z M 260.101562 368.550781 " fill-opacity="1" fill-rule="nonzero"/></g></g><g clip-path="url(#413947b837)"><g clip-path="url(#da4970cefd)"><path fill="#ffffff" d="M 271.800781 371.476562 L 280.5 371.476562 L 280.5 380.023438 L 271.800781 380.023438 Z M 271.800781 371.476562 " fill-opacity="1" fill-rule="nonzero"/></g></g><g clip-path="url(#26a5493d67)"><g clip-path="url(#d68da8c95b)"><path fill="#ffffff" d="M 249.148438 356.851562 L 257.851562 356.851562 L 257.851562 365.398438 L 249.148438 365.398438 Z M 249.148438 356.851562 " fill-opacity="1" fill-rule="nonzero"/></g></g><g clip-path="url(#8b18138141)"><g clip-path="url(#257c181fbc)"><path fill="#ffffff" d="M 254.023438 338.625 L 263.101562 338.625 L 263.101562 348.074219 L 254.023438 348.074219 Z M 254.023438 338.625 " fill-opacity="1" fill-rule="nonzero"/></g></g><g clip-path="url(#f3920b8c65)"><g clip-path="url(#f3716db2fe)"><path fill="#ffffff" d="M 256.875 352.800781 L 265.949219 352.800781 L 265.949219 362.324219 L 256.875 362.324219 Z M 256.875 352.800781 " fill-opacity="1" fill-rule="nonzero"/></g></g><g clip-path="url(#5cb25bb358)"><g clip-path="url(#a60dd71d5e)"><path fill="#ffffff" d="M 267.375 356.851562 L 276.074219 356.851562 L 276.074219 365.398438 L 267.375 365.398438 Z M 267.375 356.851562 " fill-opacity="1" fill-rule="nonzero"/></g></g><g clip-path="url(#4e3f8447c5)"><g clip-path="url(#3ed476468d)"><path fill="#ffffff" d="M 412.800781 378.074219 L 421.5 378.074219 L 421.5 386.625 L 412.800781 386.625 Z M 412.800781 378.074219 " fill-opacity="1" fill-rule="nonzero"/></g></g></svg>