<svg xmlns="http://www.w3.org/2000/svg" xmlns:xlink="http://www.w3.org/1999/xlink" version="1.1" width="256" height="256" viewBox="0 0 256 256" xml:space="preserve">

<defs>
</defs>
<g style="stroke: none; stroke-width: 0; stroke-dasharray: none; stroke-linecap: butt; stroke-linejoin: miter; stroke-miterlimit: 10; fill: none; fill-rule: nonzero; opacity: 1;" transform="translate(1.4065934065934016 1.4065934065934016) scale(2.81 2.81)" >
	<path d="M 87.988 35.163 c -0.225 -0.693 -0.825 -1.198 -1.545 -1.303 l -27.45 -3.989 L 46.717 4.998 C 46.394 4.344 45.728 3.931 45 3.931 c -0.729 0 -1.394 0.414 -1.717 1.067 L 31.007 29.872 l -27.45 3.989 c -0.721 0.105 -1.321 0.61 -1.546 1.303 c -0.225 0.693 -0.037 1.454 0.485 1.963 l 19.863 19.361 l -4.689 27.34 c -0.123 0.718 0.172 1.444 0.762 1.873 c 0.59 0.428 1.372 0.484 2.017 0.146 L 45 72.938 l 24.552 12.908 c 0.28 0.147 0.586 0.22 0.891 0.22 c 0.396 0 0.792 -0.123 1.126 -0.366 c 0.589 -0.428 0.884 -1.155 0.762 -1.873 l -4.689 -27.34 l 19.863 -19.361 C 88.026 36.618 88.214 35.857 87.988 35.163 z" style="stroke: none; stroke-width: 1; stroke-dasharray: none; stroke-linecap: butt; stroke-linejoin: miter; stroke-miterlimit: 10; fill: rgb(250,180,0); fill-rule: nonzero; opacity: 1;" transform=" matrix(1 0 0 1 0 0) " stroke-linecap="round" />
	<path d="M 44.471 64.554 h -5.525 c -1.322 0 -2.393 -1.071 -2.393 -2.393 c 0 -1.322 1.071 -2.393 2.393 -2.393 h 5.525 c 2.309 0 4.189 -1.879 4.189 -4.189 s -1.879 -4.189 -4.189 -4.189 h -5.525 c -1.322 0 -2.393 -1.071 -2.393 -2.393 V 38.656 c 0 -1.322 1.071 -2.393 2.393 -2.393 h 12.107 c 1.322 0 2.393 1.071 2.393 2.393 c 0 1.322 -1.071 2.393 -2.393 2.393 H 41.34 v 5.554 h 3.132 c 4.949 0 8.975 4.027 8.975 8.975 S 49.42 64.554 44.471 64.554 z" style="stroke: none; stroke-width: 1; stroke-dasharray: none; stroke-linecap: butt; stroke-linejoin: miter; stroke-miterlimit: 10; fill: rgb(86,49,0); fill-rule: nonzero; opacity: 1;" transform=" matrix(1 0 0 1 0 0) " stroke-linecap="round" />
	<path d="M 19.553 87.984 c -0.791 0 -1.576 -0.248 -2.247 -0.735 c -1.189 -0.863 -1.773 -2.299 -1.524 -3.746 l 4.519 -26.347 L 1.159 38.497 c -1.051 -1.024 -1.423 -2.528 -0.97 -3.925 c 0.454 -1.397 1.639 -2.396 3.092 -2.607 l 26.453 -3.844 L 41.566 4.15 c 0.65 -1.316 1.966 -2.134 3.434 -2.134 c 1.467 0 2.782 0.817 3.433 2.133 l 11.832 23.973 l 26.454 3.844 c 1.452 0.211 2.637 1.209 3.091 2.606 c 0.453 1.396 0.082 2.901 -0.969 3.926 L 69.699 57.156 l 4.519 26.348 c 0.247 1.448 -0.338 2.882 -1.524 3.745 c -1.16 0.841 -2.759 0.957 -4.031 0.294 L 45 75.102 L 21.339 87.541 C 20.773 87.837 20.161 87.984 19.553 87.984 z M 45 70.775 l 25.443 13.376 l -4.859 -28.332 l 20.584 -20.064 l -28.446 -4.133 L 45 5.845 L 32.278 31.622 L 3.832 35.755 l 20.584 20.064 l -4.859 28.332 L 45 70.775 z" style="stroke: none; stroke-width: 1; stroke-dasharray: none; stroke-linecap: butt; stroke-linejoin: miter; stroke-miterlimit: 10; fill: rgb(86,49,0); fill-rule: nonzero; opacity: 1;" transform=" matrix(1 0 0 1 0 0) " stroke-linecap="round" />
</g>
</svg>